<?xml version="1.0" encoding="utf-8"?>
<!-- Generator: Adobe Illustrator 23.0.3, SVG Export Plug-In . SVG Version: 6.00 Build 0)  -->
<svg version="1.1" id="e4ebe004-ac85-4249-bdf7-a9685d9ba22f"
	 xmlns="http://www.w3.org/2000/svg" xmlns:xlink="http://www.w3.org/1999/xlink" x="0px" y="0px" viewBox="0 0 820 725.2"
	 style="enable-background:new 0 0 820 725.2;" xml:space="preserve">
<style type="text/css">
	.st0{fill:#F2F2F2;}
	.st1{fill:#3F3D56;}
	.st2{fill:#6C63FF;}
	.st3{fill:none;stroke:#3F3D56;stroke-width:2;stroke-miterlimit:10;}
	.st4{opacity:0.1;enable-background:new    ;}
	.st5{fill:#2F2E41;}
	.st6{fill:#FFB9B9;}
	.st7{opacity:5.000000e-02;enable-background:new    ;}
	.st8{fill:#3F3D56;stroke:#6C63FF;stroke-miterlimit:10;}
	.st9{opacity:0.8;}
	.st10{fill:none;}
	.st11{fill:#F5F5F5;}
	.st12{fill:#152C47;}
	.st13{fill:#FFFFFF;}
	.st14{opacity:0.2;}
	.st15{fill:url(#SVGID_1_);}
	.st16{fill:url(#SVGID_2_);}
	.st17{fill:#FF5252;}
	.st18{fill:#69F0AE;}
	.st19{fill:#FF9800;}
	.st20{fill:#4DBDE7;}
	.st21{fill:#E9C1DC;}
	.st22{fill:#F9C8B5;}
	.st23{fill:#6BC8EB;}
	.st24{fill:#D3C7E3;}
	.st25{fill:#FBDEED;}
	.st26{fill:#EAEB9D;}
	.st27{opacity:0.5;}
	.st28{fill:url(#SVGID_3_);}
	.st29{fill:#FDA57D;}
	.st30{fill:#333333;}
	.st31{fill:#FDD835;}
	.st32{fill:url(#SVGID_4_);}
	.st33{fill:#BE7C5E;}
	.st34{fill:#3AD29F;}
	.st35{fill:url(#SVGID_5_);}
	.st36{fill:#4D8AF0;}
	.st37{fill:url(#SVGID_6_);}
	.st38{fill:#F55F44;}
	.st39{fill:url(#SVGID_7_);}
	.st40{fill:url(#SVGID_8_);}
	.st41{fill:url(#SVGID_9_);}
	.st42{fill:url(#SVGID_10_);}
	.st43{fill:url(#SVGID_11_);}
	.st44{fill:url(#SVGID_12_);}
	.st45{fill:url(#SVGID_13_);}
	.st46{opacity:0.5;fill:#6C63FF;enable-background:new    ;}
	.st47{fill:url(#SVGID_14_);}
	.st48{fill:url(#SVGID_15_);}
	.st49{fill:url(#SVGID_16_);}
	.st50{fill:url(#SVGID_17_);}
	.st51{fill:url(#SVGID_18_);}
	.st52{fill:url(#SVGID_19_);}
	.st53{fill:url(#SVGID_20_);}
	.st54{opacity:0.5;fill:#FFFFFF;enable-background:new    ;}
	.st55{fill:url(#SVGID_21_);}
	.st56{fill:none;stroke:#6C63FF;stroke-miterlimit:10;}
	.st57{fill:none;stroke:#6C63FF;stroke-miterlimit:10;stroke-dasharray:11.51,11.51;}
	.st58{fill:none;stroke:#6C63FF;stroke-miterlimit:10;stroke-dasharray:13.06,13.06;}
	.st59{fill:none;stroke:#6C63FF;stroke-miterlimit:10;stroke-dasharray:9.79,9.79;}
	.st60{fill:none;stroke:#6C63FF;stroke-miterlimit:10;stroke-dasharray:11.28,11.28;}
	.st61{fill:none;stroke:#6C63FF;stroke-miterlimit:10;stroke-dasharray:11.93,11.93;}
	.st62{fill:url(#SVGID_22_);}
	.st63{fill:url(#SVGID_23_);}
	.st64{fill:url(#SVGID_24_);}
	.st65{fill:url(#SVGID_25_);}
	.st66{fill:#CA7070;}
	.st67{fill:#00695C;}
	.st68{opacity:0.2;fill:#FFFFFF;enable-background:new    ;}
	.st69{fill:#263238;}
	.st70{fill:url(#SVGID_26_);}
	.st71{fill:url(#SVGID_27_);}
	.st72{fill:url(#SVGID_28_);}
	.st73{fill:#F6B9AD;}
	.st74{fill:#FCCC63;}
</style>
<title>voice interface</title>
<ellipse class="st0" cx="240.5" cy="469" rx="186.3" ry="184.8"/>
<path class="st1" d="M119.9,599.6c-12,18.3-8.7,41.5-8.7,41.5s22.7-6.4,34.7-24.6c12-18.3,8.7-41.5,8.7-41.5
	S131.9,581.3,119.9,599.6z"/>
<path class="st2" d="M111.1,640.9c0,0-0.3,0-0.8-0.2c-0.4-0.1-1-0.2-1.7-0.4c-6.4-1.5-23.6-6.6-34.8-20
	c-14-16.8-13.4-40.2-13.4-40.2s21.4,3.5,35.6,18.5c0.6,0.6,1.2,1.3,1.8,2c12.2,14.6,13.3,34.2,13.4,39.1
	C111.1,640.5,111.1,640.9,111.1,640.9z"/>
<path class="st3" d="M102.5,599.6c12,18.3,8.7,41.5,8.7,41.5s-22.7-6.4-34.7-24.6c-12-18.3-8.7-41.5-8.7-41.5
	S90.5,581.3,102.5,599.6z"/>
<path class="st4" d="M111.1,639.7c-0.3,0.4-0.6,0.7-0.8,1c-0.5,0.6-0.8,0.9-0.8,0.9s-0.4-0.4-0.9-1.3c-3.2-4.5-13.7-20.4-12.9-38.8
	c0-1,0.1-1.9,0.2-2.9c0.6,0.6,1.2,1.3,1.8,2C109.9,615.2,111,634.9,111.1,639.7z"/>
<path class="st2" d="M128.9,602.8c-0.9,21.8-17.2,38.8-17.2,38.8s-14.8-18.3-13.8-40.1s17.2-38.8,17.2-38.8S129.9,581.1,128.9,602.8
	z"/>
<line class="st3" x1="111.7" y1="641" x2="115.2" y2="563.6"/>
<ellipse class="st1" cx="231.9" cy="649.1" rx="218" ry="17.7"/>
<path class="st5" d="M266.5,437.3c-5.4,1.8-10.4,6.1-11.5,11.7c-0.5,2.6-0.2,5.3-0.6,7.9c-1,6-5.8,10.6-10.2,14.9s-9,9.3-9.3,15.4
	c-0.4,6.7,4.5,13,3.7,19.6c-1,7.7-9.2,12.7-11.2,20.2c-1.4,5,0.3,10.4,3,14.9c5.2,8.4,14.1,14.2,23.6,17.3
	c9.5,3.1,19.6,3.7,29.6,3.8c12.2,0.1,25.4-0.9,34.5-8.9c5.2-4.6,8.5-11,9.2-17.8c0.9-9.2-3-18.7-0.3-27.6c1.7-5.6,5.9-10.7,5.3-16.5
	c-0.6-5.7-5.6-9.7-9-14.3c-3.2-4.3-5.1-9.3-7-14.3l-6.5-17c-1.3-3.3-2.7-6.9-5.5-9.1c-5.3-4.1-13.9-3.3-20.1-2.5
	C278.2,435.8,272.1,435.4,266.5,437.3z"/>
<path class="st6" d="M268.6,486.9c0,0,2.9,9.3-18.7,20C228.2,517.6,252,529,252,529l25.2,5.7c0,0,25.9-3.6,28.8-7.9
	c2.9-4.3,7.9-18.6,6.5-20.7c-1.1-1.5-2.3-3-3.6-4.3c0,0-17.3-2.9-16.6-10.7C293,483.3,268.6,486.9,268.6,486.9z"/>
<path class="st4" d="M268.6,486.9c0,0,2.9,9.3-18.7,20C228.2,517.6,252,529,252,529l25.2,5.7c0,0,25.9-3.6,28.8-7.9
	c2.9-4.3,7.9-18.6,6.5-20.7c-1.1-1.5-2.3-3-3.6-4.3c0,0-17.3-2.9-16.6-10.7C293,483.3,268.6,486.9,268.6,486.9z"/>
<ellipse class="st6" cx="282.6" cy="478.7" rx="23.1" ry="22.9"/>
<path class="st2" d="M280.1,526.9c0,0-27.8-2-28.3-21c0,0-9.9-1.1-12.8,1.7c-2.9,2.9-12.2,5-12.2,12.2c0,7.1,15.8,28.6,15.8,28.6
	s8.6,28.6,5,33.6s-4.3,17.9-4.3,17.9s36-2.9,41.8,0c5.8,2.9,28.8,2.9,30.3,0s-1.4-38.6-1.4-38.6s6.5-8.6,5-18.6l17.3-20
	c0,0-6.5-19.3-16.6-19.3c0,0-13.7-3.6-14-1.8C305.3,503.3,312.5,523.3,280.1,526.9z"/>
<path class="st6" d="M215.2,589.8c0,0,6.5,10,23.1,12.2s19.5-3.6,18-5c-1.4-1.4-18.7-7.9-18.7-7.9l-10.1-7.9L215.2,589.8z"/>
<path class="st6" d="M333.4,581.2l-18.7,10.7c0,0-24.5-1.4-15.1,5.7c9.4,7.1,26.7,4.3,26.7,4.3l16.6-7.9L333.4,581.2z"/>
<path class="st5" d="M239.7,599.8c0,0-17.3,42.2,3.6,48.6c20.9,6.4,78.5,5,91.5-3.6c13-8.6,16.6-20,14.4-23.6
	c-2.2-3.6-16.6-13.6-26.7-14.3C312.5,606.2,239.7,599.8,239.7,599.8z"/>
<path class="st7" d="M239.7,599.8c0,0-17.3,42.2,3.6,48.6c20.9,6.4,78.5,5,91.5-3.6c13-8.6,16.6-20,14.4-23.6
	c-2.2-3.6-16.6-13.6-26.7-14.3C312.5,606.2,239.7,599.8,239.7,599.8z"/>
<path class="st5" d="M321.4,602.4c0,0,61-21.9,60.3,4.5c-0.7,26.4-38.9,33.6-38.9,33.6l-11.5,1.4l-63.4,2.1c0,0,2.2-11.4-2.9-12.9
	c0,0,16.6-4.3,17.3-5s41.8-15,44.7-15.7s11.5-6.4,18-5.7c0,0,7.2-5.7,15.1-4.3l-22.3,1.4L321.4,602.4z"/>
<path class="st4" d="M321.4,602.4c0,0,61-21.9,60.3,4.5c-0.7,26.4-38.9,33.6-38.9,33.6l-11.5,1.4l-63.4,2.1c0,0,2.2-11.4-2.9-12.9
	c0,0,16.6-4.3,17.3-5s41.8-15,44.7-15.7s11.5-6.4,18-5.7c0,0,7.2-5.7,15.1-4.3l-22.3,1.4L321.4,602.4z"/>
<polygon class="st5" points="310.6,606 318.3,623.4 365.1,607 368.7,597.7 356.4,595.5 331.8,599.8 321.1,602.7 "/>
<polygon class="st4" points="310.6,606 318.3,623.4 365.1,607 368.7,597.7 356.4,595.5 331.8,599.8 321.1,602.7 "/>
<path class="st5" d="M210.9,627c0,0,13.7,17.2,29.5,21.4c15.8,4.3,24.5-1.4,24.5-1.4l-5-20l-2.2-12.9l-9.4-6.4l-18.7-8.6l-22.3-7.1
	c0,0-9.4-1.4-9.4,0s8.6,22.9,8.6,22.9L210.9,627z"/>
<path class="st0" d="M227.5,636.3c0,0,2.9,20.7,6.5,22.2s14.4-1.4,17.3-2.9c2.9-1.4,12.7-8,12.7-8S229.7,634.8,227.5,636.3z"/>
<polygon class="st6" points="293,638.4 306.7,640.6 305.3,657 286.2,652.4 "/>
<path class="st0" d="M301.6,643c0,0-6.4,7.6,0.1,11.9l4.3,3.6c0,0,14.4,2.9,15.8,4.3c1.4,1.4,7.2-2.1,7.2-2.1s0.7-21.4,0-22.9
	c-0.7-1.4-9.4-2.9-10.1-1.4c-0.7,1.4-9.4,3.6-14.4,2.1L301.6,643z"/>
<path class="st5" d="M244.1,604.8c0,0-50.4-29.3-58.4-18.6c-7.9,10.7-16.6,25.7,6.5,37.2s95.1,35,95.1,35s10.8-16.4,10.8-20.7
	c0,0-38.2-17.2-44.7-18.6c-6.5-1.4-32.4-17.9-36-19.3s-8.6-5.7-8.6-5.7L244.1,604.8z"/>
<path class="st2" d="M229.7,516.2l-2.9,2.1c0,0-6.5,16.4-7.2,25.7c-0.7,9.3-9.4,37.9-8.6,41.5c0.7,3.6,1.4,6.4,5.8,10
	c0,0,5.8-12.9,15.8-10.7l12.2-44.3L229.7,516.2z"/>
<path class="st2" d="M330.5,516.2l5.8,6.4c0,0,3.6,8.6,3.6,10.7c0,2.1,7.2,33.6,7.9,35c0.7,1.4,3.6,19.3,0,23.6
	c-3.6,4.3-10.1,7.1-10.1,7.1s4.3-15-9.4-15.7l1.4-5.7l-13-42.9L330.5,516.2z"/>
<path class="st1" d="M231.1,565.4V603c0,4.9,4,9,9,9.1l79.4,1.2c5,0.1,9.1-3.8,9.3-8.7l1.5-37.7c0.2-5-3.7-9.2-8.8-9.4
	c-0.1,0-0.1,0-0.2,0l-80.8-1.2c-5-0.1-9.2,3.9-9.3,8.9C231.1,565.3,231.1,565.3,231.1,565.4z"/>
<ellipse class="st5" cx="284" cy="464.7" rx="24.8" ry="13.3"/>
<ellipse class="st0" cx="279.7" cy="585.2" rx="5.8" ry="5.7"/>
<path class="st5" d="M436.6,584v65.3c0,1.1-0.6,1.3-1.6,1.8c-3.3,1.8-11.6,5.1-21.4-0.1c-1-0.5-1.6-0.7-1.6-1.8v-64.8
	C411.9,584.4,424.5,589.4,436.6,584z"/>
<ellipse class="st8" cx="424.3" cy="584" rx="12.3" ry="2.6"/>
<g class="st9">
	<ellipse cx="435.5" cy="611.1" rx="0.3" ry="0.3"/>
	<ellipse cx="434.1" cy="611.5" rx="0.3" ry="0.3"/>
	<ellipse cx="432.3" cy="612.1" rx="0.3" ry="0.3"/>
	<ellipse cx="429.2" cy="612.7" rx="0.3" ry="0.3"/>
	<ellipse cx="425.9" cy="613.1" rx="0.3" ry="0.3"/>
	<ellipse cx="422.5" cy="613.3" rx="0.3" ry="0.3"/>
	<ellipse cx="417.7" cy="612.6" rx="0.3" ry="0.3"/>
	<ellipse cx="419.3" cy="613" rx="0.3" ry="0.3"/>
	<ellipse cx="414.6" cy="612.1" rx="0.3" ry="0.3"/>
	<ellipse cx="416.1" cy="612.3" rx="0.3" ry="0.3"/>
	<ellipse cx="413" cy="611.5" rx="0.3" ry="0.3"/>
	<ellipse cx="430.7" cy="612.4" rx="0.3" ry="0.3"/>
	<ellipse cx="427.5" cy="613" rx="0.3" ry="0.3"/>
	<ellipse cx="424" cy="613.3" rx="0.3" ry="0.3"/>
	<ellipse cx="420.9" cy="613.3" rx="0.3" ry="0.3"/>
</g>
<g class="st9">
	<ellipse cx="435.5" cy="612.5" rx="0.3" ry="0.3"/>
	<ellipse cx="434.1" cy="612.9" rx="0.3" ry="0.3"/>
	<ellipse cx="432.3" cy="613.4" rx="0.3" ry="0.3"/>
	<ellipse cx="429.2" cy="614.1" rx="0.3" ry="0.3"/>
	<ellipse cx="425.9" cy="614.5" rx="0.3" ry="0.3"/>
	<ellipse cx="422.5" cy="614.6" rx="0.3" ry="0.3"/>
	<ellipse cx="417.7" cy="614" rx="0.3" ry="0.3"/>
	<ellipse cx="419.3" cy="614.3" rx="0.3" ry="0.3"/>
	<ellipse cx="414.6" cy="613.4" rx="0.3" ry="0.3"/>
	<ellipse cx="416.1" cy="613.7" rx="0.3" ry="0.3"/>
	<ellipse cx="413" cy="612.9" rx="0.3" ry="0.3"/>
	<ellipse cx="430.7" cy="613.8" rx="0.3" ry="0.3"/>
	<ellipse cx="427.5" cy="614.3" rx="0.3" ry="0.3"/>
	<ellipse cx="424" cy="614.6" rx="0.3" ry="0.3"/>
	<ellipse cx="420.9" cy="614.6" rx="0.3" ry="0.3"/>
</g>
<g class="st9">
	<ellipse cx="435.5" cy="613.8" rx="0.3" ry="0.3"/>
	<ellipse cx="434.1" cy="614.2" rx="0.3" ry="0.3"/>
	<ellipse cx="432.3" cy="614.8" rx="0.3" ry="0.3"/>
	<ellipse cx="429.2" cy="615.4" rx="0.3" ry="0.3"/>
	<ellipse cx="425.9" cy="615.8" rx="0.3" ry="0.3"/>
	<ellipse cx="422.5" cy="616" rx="0.3" ry="0.3"/>
	<ellipse cx="417.7" cy="615.3" rx="0.3" ry="0.3"/>
	<ellipse cx="419.3" cy="615.7" rx="0.3" ry="0.3"/>
	<ellipse cx="414.6" cy="614.8" rx="0.3" ry="0.3"/>
	<ellipse cx="416.1" cy="615" rx="0.3" ry="0.3"/>
	<ellipse cx="413" cy="614.2" rx="0.3" ry="0.3"/>
	<ellipse cx="430.7" cy="615.1" rx="0.3" ry="0.3"/>
	<ellipse cx="427.5" cy="615.7" rx="0.3" ry="0.3"/>
	<ellipse cx="424" cy="616" rx="0.3" ry="0.3"/>
	<ellipse cx="420.9" cy="616" rx="0.3" ry="0.3"/>
</g>
<g class="st9">
	<ellipse cx="435.5" cy="615.2" rx="0.3" ry="0.3"/>
	<ellipse cx="434.1" cy="615.6" rx="0.3" ry="0.3"/>
	<ellipse cx="432.3" cy="616.1" rx="0.3" ry="0.3"/>
	<ellipse cx="429.2" cy="616.8" rx="0.3" ry="0.3"/>
	<ellipse cx="425.9" cy="617.2" rx="0.3" ry="0.3"/>
	<ellipse cx="422.5" cy="617.3" rx="0.3" ry="0.3"/>
	<ellipse cx="417.7" cy="616.7" rx="0.3" ry="0.3"/>
	<ellipse cx="419.3" cy="617" rx="0.3" ry="0.3"/>
	<ellipse cx="414.6" cy="616.1" rx="0.3" ry="0.3"/>
	<ellipse cx="416.1" cy="616.4" rx="0.3" ry="0.3"/>
	<ellipse cx="413" cy="615.6" rx="0.3" ry="0.3"/>
	<ellipse cx="430.7" cy="616.5" rx="0.3" ry="0.3"/>
	<ellipse cx="427.5" cy="617" rx="0.3" ry="0.3"/>
	<ellipse cx="424" cy="617.3" rx="0.3" ry="0.3"/>
	<ellipse cx="420.9" cy="617.3" rx="0.3" ry="0.3"/>
</g>
<g class="st9">
	<ellipse cx="435.5" cy="616.5" rx="0.3" ry="0.3"/>
	<ellipse cx="434.1" cy="616.9" rx="0.3" ry="0.3"/>
	<ellipse cx="432.3" cy="617.5" rx="0.3" ry="0.3"/>
	<ellipse cx="429.2" cy="618.1" rx="0.3" ry="0.3"/>
	<ellipse cx="425.9" cy="618.5" rx="0.3" ry="0.3"/>
	<ellipse cx="422.5" cy="618.7" rx="0.3" ry="0.3"/>
	<ellipse cx="417.7" cy="618" rx="0.3" ry="0.3"/>
	<ellipse cx="419.3" cy="618.4" rx="0.3" ry="0.3"/>
	<ellipse cx="414.6" cy="617.5" rx="0.3" ry="0.3"/>
	<ellipse cx="416.1" cy="617.7" rx="0.3" ry="0.3"/>
	<ellipse cx="413" cy="616.9" rx="0.3" ry="0.3"/>
	<ellipse cx="430.7" cy="617.8" rx="0.3" ry="0.3"/>
	<ellipse cx="427.5" cy="618.4" rx="0.3" ry="0.3"/>
	<ellipse cx="424" cy="618.7" rx="0.3" ry="0.3"/>
	<ellipse cx="420.9" cy="618.7" rx="0.3" ry="0.3"/>
</g>
<g class="st9">
	<ellipse cx="435.5" cy="617.9" rx="0.3" ry="0.3"/>
	<ellipse cx="434.1" cy="618.3" rx="0.3" ry="0.3"/>
	<ellipse cx="432.3" cy="618.8" rx="0.3" ry="0.3"/>
	<ellipse cx="429.2" cy="619.5" rx="0.3" ry="0.3"/>
	<ellipse cx="425.9" cy="619.9" rx="0.3" ry="0.3"/>
	<ellipse cx="422.5" cy="620" rx="0.3" ry="0.3"/>
	<ellipse cx="417.7" cy="619.4" rx="0.3" ry="0.3"/>
	<ellipse cx="419.3" cy="619.7" rx="0.3" ry="0.3"/>
	<ellipse cx="414.6" cy="618.8" rx="0.3" ry="0.3"/>
	<ellipse cx="416.1" cy="619.1" rx="0.3" ry="0.3"/>
	<ellipse cx="413" cy="618.3" rx="0.3" ry="0.3"/>
	<ellipse cx="430.7" cy="619.2" rx="0.3" ry="0.3"/>
	<ellipse cx="427.5" cy="619.7" rx="0.3" ry="0.3"/>
	<ellipse cx="424" cy="620" rx="0.3" ry="0.3"/>
	<ellipse cx="420.9" cy="620" rx="0.3" ry="0.3"/>
</g>
<g class="st9">
	<ellipse cx="435.5" cy="619.2" rx="0.3" ry="0.3"/>
	<ellipse cx="434.1" cy="619.6" rx="0.3" ry="0.3"/>
	<ellipse cx="432.3" cy="620.2" rx="0.3" ry="0.3"/>
	<ellipse cx="429.2" cy="620.8" rx="0.3" ry="0.3"/>
	<ellipse cx="425.9" cy="621.2" rx="0.3" ry="0.3"/>
	<ellipse cx="422.5" cy="621.4" rx="0.3" ry="0.3"/>
	<ellipse cx="417.7" cy="620.7" rx="0.3" ry="0.3"/>
	<ellipse cx="419.3" cy="621.1" rx="0.3" ry="0.3"/>
	<ellipse cx="414.6" cy="620.2" rx="0.3" ry="0.3"/>
	<ellipse cx="416.1" cy="620.4" rx="0.3" ry="0.3"/>
	<ellipse cx="413" cy="619.6" rx="0.3" ry="0.3"/>
	<ellipse cx="430.7" cy="620.5" rx="0.3" ry="0.3"/>
	<ellipse cx="427.5" cy="621.1" rx="0.3" ry="0.3"/>
	<ellipse cx="424" cy="621.4" rx="0.3" ry="0.3"/>
	<ellipse cx="420.9" cy="621.4" rx="0.3" ry="0.3"/>
</g>
<g class="st9">
	<ellipse cx="435.5" cy="620.6" rx="0.3" ry="0.3"/>
	<ellipse cx="434.1" cy="621" rx="0.3" ry="0.3"/>
	<ellipse cx="432.3" cy="621.5" rx="0.3" ry="0.3"/>
	<ellipse cx="429.2" cy="622.2" rx="0.3" ry="0.3"/>
	<ellipse cx="425.9" cy="622.6" rx="0.3" ry="0.3"/>
	<ellipse cx="422.5" cy="622.7" rx="0.3" ry="0.3"/>
	<ellipse cx="417.7" cy="622.1" rx="0.3" ry="0.3"/>
	<ellipse cx="419.3" cy="622.5" rx="0.3" ry="0.3"/>
	<ellipse cx="414.6" cy="621.5" rx="0.3" ry="0.3"/>
	<ellipse cx="416.1" cy="621.8" rx="0.3" ry="0.3"/>
	<ellipse cx="413" cy="621" rx="0.3" ry="0.3"/>
	<ellipse cx="430.7" cy="621.9" rx="0.3" ry="0.3"/>
	<ellipse cx="427.5" cy="622.5" rx="0.3" ry="0.3"/>
	<ellipse cx="424" cy="622.7" rx="0.3" ry="0.3"/>
	<ellipse cx="420.9" cy="622.7" rx="0.3" ry="0.3"/>
</g>
<g class="st9">
	<ellipse cx="435.5" cy="621.9" rx="0.3" ry="0.3"/>
	<ellipse cx="434.1" cy="622.3" rx="0.3" ry="0.3"/>
	<ellipse cx="432.3" cy="622.9" rx="0.3" ry="0.3"/>
	<ellipse cx="429.2" cy="623.5" rx="0.3" ry="0.3"/>
	<ellipse cx="425.9" cy="623.9" rx="0.3" ry="0.3"/>
	<ellipse cx="422.5" cy="624.1" rx="0.3" ry="0.3"/>
	<ellipse cx="417.7" cy="623.4" rx="0.3" ry="0.3"/>
	<ellipse cx="419.3" cy="623.8" rx="0.3" ry="0.3"/>
	<ellipse cx="414.6" cy="622.9" rx="0.3" ry="0.3"/>
	<ellipse cx="416.1" cy="623.1" rx="0.3" ry="0.3"/>
	<ellipse cx="413" cy="622.3" rx="0.3" ry="0.3"/>
	<ellipse cx="430.7" cy="623.3" rx="0.3" ry="0.3"/>
	<ellipse cx="427.5" cy="623.8" rx="0.3" ry="0.3"/>
	<ellipse cx="424" cy="624.1" rx="0.3" ry="0.3"/>
	<ellipse cx="420.9" cy="624.1" rx="0.3" ry="0.3"/>
</g>
<g class="st9">
	<ellipse cx="435.5" cy="623.3" rx="0.3" ry="0.3"/>
	<ellipse cx="434.1" cy="623.7" rx="0.3" ry="0.3"/>
	<ellipse cx="432.3" cy="624.2" rx="0.3" ry="0.3"/>
	<ellipse cx="429.2" cy="624.9" rx="0.3" ry="0.3"/>
	<ellipse cx="425.9" cy="625.3" rx="0.3" ry="0.3"/>
	<ellipse cx="422.5" cy="625.4" rx="0.3" ry="0.3"/>
	<ellipse cx="417.7" cy="624.8" rx="0.3" ry="0.3"/>
	<ellipse cx="419.3" cy="625.2" rx="0.3" ry="0.3"/>
	<ellipse cx="414.6" cy="624.2" rx="0.3" ry="0.3"/>
	<ellipse cx="416.1" cy="624.5" rx="0.3" ry="0.3"/>
	<ellipse cx="413" cy="623.7" rx="0.3" ry="0.3"/>
	<ellipse cx="430.7" cy="624.6" rx="0.3" ry="0.3"/>
	<ellipse cx="427.5" cy="625.2" rx="0.3" ry="0.3"/>
	<ellipse cx="424" cy="625.4" rx="0.3" ry="0.3"/>
	<ellipse cx="420.9" cy="625.4" rx="0.3" ry="0.3"/>
</g>
<g class="st9">
	<ellipse cx="435.5" cy="624.6" rx="0.3" ry="0.3"/>
	<ellipse cx="434.1" cy="625" rx="0.3" ry="0.3"/>
	<ellipse cx="432.3" cy="625.6" rx="0.3" ry="0.3"/>
	<ellipse cx="429.2" cy="626.2" rx="0.3" ry="0.3"/>
	<ellipse cx="425.9" cy="626.6" rx="0.3" ry="0.3"/>
	<ellipse cx="422.5" cy="626.8" rx="0.3" ry="0.3"/>
	<ellipse cx="417.7" cy="626.1" rx="0.3" ry="0.3"/>
	<ellipse cx="419.3" cy="626.5" rx="0.3" ry="0.3"/>
	<ellipse cx="414.6" cy="625.6" rx="0.3" ry="0.3"/>
	<ellipse cx="416.1" cy="625.8" rx="0.3" ry="0.3"/>
	<ellipse cx="413" cy="625" rx="0.3" ry="0.3"/>
	<ellipse cx="430.7" cy="626" rx="0.3" ry="0.3"/>
	<ellipse cx="427.5" cy="626.5" rx="0.3" ry="0.3"/>
	<ellipse cx="424" cy="626.8" rx="0.3" ry="0.3"/>
	<ellipse cx="420.9" cy="626.8" rx="0.3" ry="0.3"/>
</g>
<g class="st9">
	<ellipse cx="435.5" cy="626" rx="0.3" ry="0.3"/>
	<ellipse cx="434.1" cy="626.4" rx="0.3" ry="0.3"/>
	<ellipse cx="432.3" cy="626.9" rx="0.3" ry="0.3"/>
	<ellipse cx="429.2" cy="627.6" rx="0.3" ry="0.3"/>
	<ellipse cx="425.9" cy="628" rx="0.3" ry="0.3"/>
	<ellipse cx="422.5" cy="628.1" rx="0.3" ry="0.3"/>
	<ellipse cx="417.7" cy="627.5" rx="0.3" ry="0.3"/>
	<ellipse cx="419.3" cy="627.9" rx="0.3" ry="0.3"/>
	<ellipse cx="414.6" cy="626.9" rx="0.3" ry="0.3"/>
	<ellipse cx="416.1" cy="627.2" rx="0.3" ry="0.3"/>
	<ellipse cx="413" cy="626.4" rx="0.3" ry="0.3"/>
	<ellipse cx="430.7" cy="627.3" rx="0.3" ry="0.3"/>
	<ellipse cx="427.5" cy="627.9" rx="0.3" ry="0.3"/>
	<ellipse cx="424" cy="628.1" rx="0.3" ry="0.3"/>
	<ellipse cx="420.9" cy="628.1" rx="0.3" ry="0.3"/>
</g>
<g class="st9">
	<ellipse cx="435.5" cy="627.3" rx="0.3" ry="0.3"/>
	<ellipse cx="434.1" cy="627.7" rx="0.3" ry="0.3"/>
	<ellipse cx="432.3" cy="628.3" rx="0.3" ry="0.3"/>
	<ellipse cx="429.2" cy="628.9" rx="0.3" ry="0.3"/>
	<ellipse cx="425.9" cy="629.3" rx="0.3" ry="0.3"/>
	<ellipse cx="422.5" cy="629.5" rx="0.3" ry="0.3"/>
	<ellipse cx="417.7" cy="628.8" rx="0.3" ry="0.3"/>
	<ellipse cx="419.3" cy="629.2" rx="0.3" ry="0.3"/>
	<ellipse cx="414.6" cy="628.3" rx="0.3" ry="0.3"/>
	<ellipse cx="416.1" cy="628.5" rx="0.3" ry="0.3"/>
	<ellipse cx="413" cy="627.7" rx="0.3" ry="0.3"/>
	<ellipse cx="430.7" cy="628.7" rx="0.3" ry="0.3"/>
	<ellipse cx="427.5" cy="629.2" rx="0.3" ry="0.3"/>
	<ellipse cx="424" cy="629.5" rx="0.3" ry="0.3"/>
	<ellipse cx="420.9" cy="629.5" rx="0.3" ry="0.3"/>
</g>
<g class="st9">
	<ellipse cx="435.5" cy="628.7" rx="0.3" ry="0.3"/>
	<ellipse cx="434.1" cy="629.1" rx="0.3" ry="0.3"/>
	<ellipse cx="432.3" cy="629.6" rx="0.3" ry="0.3"/>
	<ellipse cx="429.2" cy="630.3" rx="0.3" ry="0.3"/>
	<ellipse cx="425.9" cy="630.7" rx="0.3" ry="0.3"/>
	<ellipse cx="422.5" cy="630.8" rx="0.3" ry="0.3"/>
	<ellipse cx="417.7" cy="630.2" rx="0.3" ry="0.3"/>
	<ellipse cx="419.3" cy="630.6" rx="0.3" ry="0.3"/>
	<ellipse cx="414.6" cy="629.6" rx="0.3" ry="0.3"/>
	<ellipse cx="416.1" cy="629.9" rx="0.3" ry="0.3"/>
	<ellipse cx="413" cy="629.1" rx="0.3" ry="0.3"/>
	<ellipse cx="430.7" cy="630" rx="0.3" ry="0.3"/>
	<ellipse cx="427.5" cy="630.6" rx="0.3" ry="0.3"/>
	<ellipse cx="424" cy="630.8" rx="0.3" ry="0.3"/>
	<ellipse cx="420.9" cy="630.8" rx="0.3" ry="0.3"/>
</g>
<g class="st9">
	<ellipse cx="435.5" cy="630" rx="0.3" ry="0.3"/>
	<ellipse cx="434.1" cy="630.4" rx="0.3" ry="0.3"/>
	<ellipse cx="432.3" cy="631" rx="0.3" ry="0.3"/>
	<ellipse cx="429.2" cy="631.6" rx="0.3" ry="0.3"/>
	<ellipse cx="425.9" cy="632" rx="0.3" ry="0.3"/>
	<ellipse cx="422.5" cy="632.2" rx="0.3" ry="0.3"/>
	<ellipse cx="417.7" cy="631.5" rx="0.3" ry="0.3"/>
	<ellipse cx="419.3" cy="631.9" rx="0.3" ry="0.3"/>
	<ellipse cx="414.6" cy="631" rx="0.3" ry="0.3"/>
	<ellipse cx="416.1" cy="631.2" rx="0.3" ry="0.3"/>
	<ellipse cx="413" cy="630.4" rx="0.3" ry="0.3"/>
	<ellipse cx="430.7" cy="631.4" rx="0.3" ry="0.3"/>
	<ellipse cx="427.5" cy="631.9" rx="0.3" ry="0.3"/>
	<ellipse cx="424" cy="632.2" rx="0.3" ry="0.3"/>
	<ellipse cx="420.9" cy="632.2" rx="0.3" ry="0.3"/>
</g>
<g class="st9">
	<ellipse cx="435.5" cy="631.4" rx="0.3" ry="0.3"/>
	<ellipse cx="434.1" cy="631.8" rx="0.3" ry="0.3"/>
	<ellipse cx="432.3" cy="632.3" rx="0.3" ry="0.3"/>
	<ellipse cx="429.2" cy="633" rx="0.3" ry="0.3"/>
	<ellipse cx="425.9" cy="633.4" rx="0.3" ry="0.3"/>
	<ellipse cx="422.5" cy="633.5" rx="0.3" ry="0.3"/>
	<ellipse cx="417.7" cy="632.9" rx="0.3" ry="0.3"/>
	<ellipse cx="419.3" cy="633.3" rx="0.3" ry="0.3"/>
	<ellipse cx="414.6" cy="632.3" rx="0.3" ry="0.3"/>
	<ellipse cx="416.1" cy="632.6" rx="0.3" ry="0.3"/>
	<ellipse cx="413" cy="631.8" rx="0.3" ry="0.3"/>
	<ellipse cx="430.7" cy="632.7" rx="0.3" ry="0.3"/>
	<ellipse cx="427.5" cy="633.3" rx="0.3" ry="0.3"/>
	<ellipse cx="424" cy="633.5" rx="0.3" ry="0.3"/>
	<ellipse cx="420.9" cy="633.5" rx="0.3" ry="0.3"/>
</g>
<g class="st9">
	<ellipse cx="435.5" cy="632.7" rx="0.3" ry="0.3"/>
	<ellipse cx="434.1" cy="633.1" rx="0.3" ry="0.3"/>
	<ellipse cx="432.3" cy="633.7" rx="0.3" ry="0.3"/>
	<ellipse cx="429.2" cy="634.3" rx="0.3" ry="0.3"/>
	<ellipse cx="425.9" cy="634.7" rx="0.3" ry="0.3"/>
	<ellipse cx="422.5" cy="634.9" rx="0.3" ry="0.3"/>
	<ellipse cx="417.7" cy="634.2" rx="0.3" ry="0.3"/>
	<ellipse cx="419.3" cy="634.6" rx="0.3" ry="0.3"/>
	<ellipse cx="414.6" cy="633.7" rx="0.3" ry="0.3"/>
	<ellipse cx="416.1" cy="633.9" rx="0.3" ry="0.3"/>
	<ellipse cx="413" cy="633.1" rx="0.3" ry="0.3"/>
	<ellipse cx="430.7" cy="634.1" rx="0.3" ry="0.3"/>
	<ellipse cx="427.5" cy="634.6" rx="0.3" ry="0.3"/>
	<ellipse cx="424" cy="634.9" rx="0.3" ry="0.3"/>
	<ellipse cx="420.9" cy="634.9" rx="0.3" ry="0.3"/>
</g>
<g class="st9">
	<ellipse cx="435.5" cy="634.1" rx="0.3" ry="0.3"/>
	<ellipse cx="434.1" cy="634.5" rx="0.3" ry="0.3"/>
	<ellipse cx="432.3" cy="635" rx="0.3" ry="0.3"/>
	<ellipse cx="429.2" cy="635.7" rx="0.3" ry="0.3"/>
	<ellipse cx="425.9" cy="636.1" rx="0.3" ry="0.3"/>
	<ellipse cx="422.5" cy="636.2" rx="0.3" ry="0.3"/>
	<ellipse cx="417.7" cy="635.6" rx="0.3" ry="0.3"/>
	<ellipse cx="419.3" cy="636" rx="0.3" ry="0.3"/>
	<ellipse cx="414.6" cy="635" rx="0.3" ry="0.3"/>
	<ellipse cx="416.1" cy="635.3" rx="0.3" ry="0.3"/>
	<ellipse cx="413" cy="634.5" rx="0.3" ry="0.3"/>
	<ellipse cx="430.7" cy="635.4" rx="0.3" ry="0.3"/>
	<ellipse cx="427.5" cy="636" rx="0.3" ry="0.3"/>
	<ellipse cx="424" cy="636.2" rx="0.3" ry="0.3"/>
	<ellipse cx="420.9" cy="636.2" rx="0.3" ry="0.3"/>
</g>
<g class="st9">
	<ellipse cx="435.5" cy="635.4" rx="0.3" ry="0.3"/>
	<ellipse cx="434.1" cy="635.8" rx="0.3" ry="0.3"/>
	<ellipse cx="432.3" cy="636.4" rx="0.3" ry="0.3"/>
	<ellipse cx="429.2" cy="637" rx="0.3" ry="0.3"/>
	<ellipse cx="425.9" cy="637.4" rx="0.3" ry="0.3"/>
	<ellipse cx="422.5" cy="637.6" rx="0.3" ry="0.3"/>
	<ellipse cx="417.7" cy="636.9" rx="0.3" ry="0.3"/>
	<ellipse cx="419.3" cy="637.3" rx="0.3" ry="0.3"/>
	<ellipse cx="414.6" cy="636.4" rx="0.3" ry="0.3"/>
	<ellipse cx="416.1" cy="636.6" rx="0.3" ry="0.3"/>
	<ellipse cx="413" cy="635.8" rx="0.3" ry="0.3"/>
	<ellipse cx="430.7" cy="636.8" rx="0.3" ry="0.3"/>
	<ellipse cx="427.5" cy="637.3" rx="0.3" ry="0.3"/>
	<ellipse cx="424" cy="637.6" rx="0.3" ry="0.3"/>
	<ellipse cx="420.9" cy="637.6" rx="0.3" ry="0.3"/>
</g>
<g class="st9">
	<ellipse cx="435.5" cy="636.8" rx="0.3" ry="0.3"/>
	<ellipse cx="434.1" cy="637.2" rx="0.3" ry="0.3"/>
	<ellipse cx="432.3" cy="637.7" rx="0.3" ry="0.3"/>
	<ellipse cx="429.2" cy="638.4" rx="0.3" ry="0.3"/>
	<ellipse cx="425.9" cy="638.8" rx="0.3" ry="0.3"/>
	<ellipse cx="422.5" cy="638.9" rx="0.3" ry="0.3"/>
	<ellipse cx="417.7" cy="638.3" rx="0.3" ry="0.3"/>
	<ellipse cx="419.3" cy="638.7" rx="0.3" ry="0.3"/>
	<ellipse cx="414.6" cy="637.7" rx="0.3" ry="0.3"/>
	<ellipse cx="416.1" cy="638" rx="0.3" ry="0.3"/>
	<ellipse cx="413" cy="637.2" rx="0.3" ry="0.3"/>
	<ellipse cx="430.7" cy="638.1" rx="0.3" ry="0.3"/>
	<ellipse cx="427.5" cy="638.7" rx="0.3" ry="0.3"/>
	<ellipse cx="424" cy="638.9" rx="0.3" ry="0.3"/>
	<ellipse cx="420.9" cy="638.9" rx="0.3" ry="0.3"/>
</g>
<g class="st9">
	<ellipse cx="435.5" cy="638.1" rx="0.3" ry="0.3"/>
	<ellipse cx="434.1" cy="638.5" rx="0.3" ry="0.3"/>
	<ellipse cx="432.3" cy="639.1" rx="0.3" ry="0.3"/>
	<ellipse cx="429.2" cy="639.7" rx="0.3" ry="0.3"/>
	<ellipse cx="425.9" cy="640.1" rx="0.3" ry="0.3"/>
	<ellipse cx="422.5" cy="640.3" rx="0.3" ry="0.3"/>
	<ellipse cx="417.7" cy="639.6" rx="0.3" ry="0.3"/>
	<ellipse cx="419.3" cy="640" rx="0.3" ry="0.3"/>
	<ellipse cx="414.6" cy="639.1" rx="0.3" ry="0.3"/>
	<ellipse cx="416.1" cy="639.4" rx="0.3" ry="0.3"/>
	<ellipse cx="413" cy="638.5" rx="0.3" ry="0.3"/>
	<ellipse cx="430.7" cy="639.5" rx="0.3" ry="0.3"/>
	<ellipse cx="427.5" cy="640" rx="0.3" ry="0.3"/>
	<ellipse cx="424" cy="640.3" rx="0.3" ry="0.3"/>
	<ellipse cx="420.9" cy="640.3" rx="0.3" ry="0.3"/>
</g>
<g class="st9">
	<ellipse cx="435.5" cy="639.5" rx="0.3" ry="0.3"/>
	<ellipse cx="434.1" cy="639.9" rx="0.3" ry="0.3"/>
	<ellipse cx="432.3" cy="640.4" rx="0.3" ry="0.3"/>
	<ellipse cx="429.2" cy="641.1" rx="0.3" ry="0.3"/>
	<ellipse cx="425.9" cy="641.5" rx="0.3" ry="0.3"/>
	<ellipse cx="422.5" cy="641.6" rx="0.3" ry="0.3"/>
	<ellipse cx="417.7" cy="641" rx="0.3" ry="0.3"/>
	<ellipse cx="419.3" cy="641.4" rx="0.3" ry="0.3"/>
	<ellipse cx="414.6" cy="640.4" rx="0.3" ry="0.3"/>
	<ellipse cx="416.1" cy="640.7" rx="0.3" ry="0.3"/>
	<ellipse cx="413" cy="639.9" rx="0.3" ry="0.3"/>
	<ellipse cx="430.7" cy="640.8" rx="0.3" ry="0.3"/>
	<ellipse cx="427.5" cy="641.4" rx="0.3" ry="0.3"/>
	<ellipse cx="424" cy="641.6" rx="0.3" ry="0.3"/>
	<ellipse cx="420.9" cy="641.6" rx="0.3" ry="0.3"/>
</g>
<g class="st9">
	<ellipse cx="435.5" cy="640.8" rx="0.3" ry="0.3"/>
	<ellipse cx="434.1" cy="641.2" rx="0.3" ry="0.3"/>
	<ellipse cx="432.3" cy="641.8" rx="0.3" ry="0.3"/>
	<ellipse cx="429.2" cy="642.4" rx="0.3" ry="0.3"/>
	<ellipse cx="425.9" cy="642.8" rx="0.3" ry="0.3"/>
	<ellipse cx="422.5" cy="643" rx="0.3" ry="0.3"/>
	<ellipse cx="417.7" cy="642.3" rx="0.3" ry="0.3"/>
	<ellipse cx="419.3" cy="642.7" rx="0.3" ry="0.3"/>
	<ellipse cx="414.6" cy="641.8" rx="0.3" ry="0.3"/>
	<ellipse cx="416.1" cy="642.1" rx="0.3" ry="0.3"/>
	<ellipse cx="413" cy="641.2" rx="0.3" ry="0.3"/>
	<ellipse cx="430.7" cy="642.2" rx="0.3" ry="0.3"/>
	<ellipse cx="427.5" cy="642.7" rx="0.3" ry="0.3"/>
	<ellipse cx="424" cy="643" rx="0.3" ry="0.3"/>
	<ellipse cx="420.9" cy="643" rx="0.3" ry="0.3"/>
</g>
<g class="st9">
	<ellipse cx="435.5" cy="642.2" rx="0.3" ry="0.3"/>
	<ellipse cx="434.1" cy="642.6" rx="0.3" ry="0.3"/>
	<ellipse cx="432.3" cy="643.1" rx="0.3" ry="0.3"/>
	<ellipse cx="429.2" cy="643.8" rx="0.3" ry="0.3"/>
	<ellipse cx="425.9" cy="644.2" rx="0.3" ry="0.3"/>
	<ellipse cx="422.5" cy="644.3" rx="0.3" ry="0.3"/>
	<ellipse cx="417.7" cy="643.7" rx="0.3" ry="0.3"/>
	<ellipse cx="419.3" cy="644.1" rx="0.3" ry="0.3"/>
	<ellipse cx="414.6" cy="643.1" rx="0.3" ry="0.3"/>
	<ellipse cx="416.1" cy="643.4" rx="0.3" ry="0.3"/>
	<ellipse cx="413" cy="642.6" rx="0.3" ry="0.3"/>
	<ellipse cx="430.7" cy="643.5" rx="0.3" ry="0.3"/>
	<ellipse cx="427.5" cy="644.1" rx="0.3" ry="0.3"/>
	<ellipse cx="424" cy="644.3" rx="0.3" ry="0.3"/>
	<ellipse cx="420.9" cy="644.3" rx="0.3" ry="0.3"/>
</g>
<rect x="576.7" y="77.6" class="st10" width="57.5" height="18.9"/>
<rect x="466.3" y="46.3" class="st11" width="231.2" height="8.7"/>
<rect x="461.7" y="43.5" class="st12" width="240.2" height="298.1"/>
<rect x="466.3" y="55" class="st13" width="231.2" height="276.2"/>
<g class="st14">
	<rect x="480.8" y="67.4" class="st2" width="202.8" height="5.4"/>
</g>
<linearGradient id="SVGID_1_" gradientUnits="userSpaceOnUse" x1="639.8077" y1="263.6664" x2="639.8077" y2="171.0976" gradientTransform="matrix(1 0 0 1 0 -34)">
	<stop  offset="0" style="stop-color:#808080;stop-opacity:0.25"/>
	<stop  offset="0.54" style="stop-color:#808080;stop-opacity:0.12"/>
	<stop  offset="1" style="stop-color:#808080;stop-opacity:0.1"/>
</linearGradient>
<rect x="596" y="137.1" class="st15" width="87.5" height="92.6"/>
<rect x="597.9" y="140.1" class="st13" width="83.9" height="86.5"/>
<linearGradient id="SVGID_2_" gradientUnits="userSpaceOnUse" x1="684.4613" y1="349.0607" x2="684.4613" y2="274.5404" gradientTransform="matrix(1 0 0 1 -154.5 -128.48)">
	<stop  offset="0" style="stop-color:#808080;stop-opacity:0.25"/>
	<stop  offset="0.54" style="stop-color:#808080;stop-opacity:0.12"/>
	<stop  offset="1" style="stop-color:#808080;stop-opacity:0.1"/>
</linearGradient>
<path class="st16" d="M558.3,159c-13.5-15.6-37.1-17.4-52.8-3.9c-15.6,13.4-17.4,37-4,52.5c13.5,15.6,37.1,17.4,52.8,3.9
	c8.2-7.1,13-17.4,13-28.3C567.4,174.4,564.2,165.8,558.3,159z M543.2,205.6c-12.3,7.2-28.3,3.2-35.6-9c-7.3-12.3-3.2-28.1,9.1-35.4
	c12.3-7.2,28.3-3.2,35.6,9c2.3,4,3.6,8.5,3.6,13.1C556,192.5,551.2,201,543.2,205.6L543.2,205.6z"/>
<path class="st17" d="M548.7,167.3l8.2-7.1c-6.7-7.9-16.6-12.3-26.9-12.3v10.8C537.2,158.7,544,161.9,548.7,167.3z"/>
<path class="st18" d="M530,208c-3.5,0-7-0.7-10.2-2.2l-4.5,9.9c10.6,4.8,22.9,4.1,32.9-1.8l-5.5-9.3C538.8,206.8,534.5,208,530,208z
	"/>
<path class="st19" d="M565.6,183.4c0-8.5-3.1-16.7-8.6-23.2l-8.2,7.1c8.9,10.3,7.8,25.8-2.5,34.7c-1.1,1-2.3,1.8-3.5,2.6l5.5,9.3
	C559,207.5,565.6,195.9,565.6,183.4z"/>
<path class="st2" d="M505.2,183.4c0-13.6,11.1-24.6,24.7-24.6l0,0v-10.8c-19.7,0-35.6,15.8-35.6,35.4c0,13.9,8.2,26.5,20.9,32.3
	l4.5-9.9C510.9,201.8,505.2,193,505.2,183.4z"/>
<rect x="488.3" y="244" class="st20" width="89.9" height="5.4"/>
<rect x="488.3" y="253.1" class="st21" width="50.7" height="5.4"/>
<rect x="488.3" y="262.1" class="st22" width="89.9" height="5.4"/>
<rect x="594.8" y="91.4" class="st23" width="89.9" height="5.4"/>
<rect x="594.8" y="100.4" class="st24" width="50.7" height="5.4"/>
<rect x="594.8" y="118.4" class="st25" width="50.7" height="5.4"/>
<rect x="594.8" y="109.5" class="st26" width="89.9" height="5.4"/>
<g class="st27">
	
		<linearGradient id="SVGID_3_" gradientUnits="userSpaceOnUse" x1="323.2203" y1="214.489" x2="323.2203" y2="186.9773" gradientTransform="matrix(1 0 0 1 -203.29 -97)">
		<stop  offset="0" style="stop-color:#808080;stop-opacity:0.25"/>
		<stop  offset="0.54" style="stop-color:#808080;stop-opacity:0.12"/>
		<stop  offset="1" style="stop-color:#808080;stop-opacity:0.1"/>
	</linearGradient>
	<path class="st28" d="M136.4,103.7c0-7.6-7.4-13.7-16.5-13.7s-16.5,6.1-16.5,13.7c0,4.6,2.7,8.8,7.3,11.4v0.1
		c0.5,0.4,1.2,0.8,1.9,1l0-0.1c0.8,0.6,4,1.4,7.8,1.4h0.1c2.4,0,4.9-0.3,7.2-1.4c0,0,0,0,0.1-0.1c0.6-0.2,1.1-0.5,1.5-0.9l0-0.2
		C133.7,112.4,136.4,108.2,136.4,103.7z"/>
</g>
<ellipse class="st11" cx="119.4" cy="104.9" rx="16" ry="13.3"/>
<path class="st29" d="M113.4,108.4c0,0-3.8,0.3-2.8,6c0.5,0.4,1.1,0.8,1.8,1l2.1-6L113.4,108.4z"/>
<path class="st29" d="M125.7,108.4c0,0,3.8,0.3,2.8,6c-0.5,0.4-1.1,0.8-1.8,1l-2.1-6L125.7,108.4z"/>
<path class="st30" d="M113.5,99c0,0-1.8,4.4-2.8,4c0,0,9.5,6.9,18,0c-1-1.4-2.2-2.8-3.6-4H113.5z"/>
<ellipse class="st30" cx="119.6" cy="98.6" rx="7.1" ry="5.9"/>
<path class="st4" d="M125.6,108.4h-12.4l-1.1,4.1c0,0-0.7,1.9,0.2,2.7s8.7,2.7,14.5,0.1c0.5-1.1,0.5-2.3,0.2-3.4
	c-0.6-1.9-0.2-0.1-0.2-0.1L125.6,108.4z"/>
<path class="st4" d="M125.8,108.4h-12.3l-1.2,4.1c0,0-0.7,1.9,0.2,2.7s8.7,2.7,14.5,0.1c0.5-1.1,0.5-2.3,0.2-3.4
	c-0.6-1.9-0.2-0.1-0.2-0.1L125.8,108.4z"/>
<path class="st31" d="M125.7,108.4h-12.4l-1.2,4.1c0,0-0.7,1.9,0.2,2.7s8.7,2.7,14.5,0.1c0.5-1.1,0.5-2.3,0.2-3.4
	c-0.6-1.9-0.2-0.1-0.2-0.1L125.7,108.4z"/>
<path class="st4" d="M117.1,105h5l0,0v3.5c0,1-1,1.8-2.2,1.8h-0.6c-1.2,0-2.2-0.8-2.2-1.8L117.1,105L117.1,105z"/>
<path class="st29" d="M117.1,104.9h5l0,0v3.5c0,1-1,1.8-2.2,1.8h-0.6c-1.2,0-2.2-0.8-2.2-1.8L117.1,104.9L117.1,104.9z"/>
<path class="st4" d="M117.2,105.5c1.6,0.5,3.3,0.5,5,0V105h-5V105.5z"/>
<ellipse class="st29" cx="119.6" cy="99.8" rx="7.1" ry="5.9"/>
<path class="st30" d="M112.8,97.6h13.5c0,0-1.2-4.6-6.3-4.3C115,93.6,112.8,97.6,112.8,97.6z"/>
<ellipse class="st29" cx="112.7" cy="99.6" rx="0.6" ry="1"/>
<ellipse class="st29" cx="126.5" cy="99.6" rx="0.7" ry="1"/>
<path class="st4" d="M112.8,97.7h13.5c0,0-1.2-4.5-6.3-4.3C115,93.8,112.8,97.7,112.8,97.7z"/>
<g class="st27">
	
		<linearGradient id="SVGID_4_" gradientUnits="userSpaceOnUse" x1="114.5542" y1="169.8336" x2="114.5542" y2="142.3219" gradientTransform="matrix(-1 0 0 1 234.71 -97)">
		<stop  offset="0" style="stop-color:#808080;stop-opacity:0.25"/>
		<stop  offset="0.54" style="stop-color:#808080;stop-opacity:0.12"/>
		<stop  offset="1" style="stop-color:#808080;stop-opacity:0.1"/>
	</linearGradient>
	<path class="st32" d="M103.7,59c0-7.6,7.4-13.7,16.5-13.7s16.5,6.1,16.5,13.7c0,4.6-2.7,8.8-7.3,11.4v0.1c-0.5,0.4-1.2,0.8-1.9,1
		l0-0.1c-0.8,0.6-4,1.4-7.8,1.4h-0.1c-2.4,0-4.9-0.3-7.2-1.4c0,0,0,0-0.1-0.1c-0.6-0.2-1.1-0.5-1.5-0.9l0-0.2
		C106.3,67.8,103.7,63.5,103.7,59z"/>
</g>
<ellipse class="st11" cx="120.2" cy="59" rx="16" ry="13.3"/>
<path class="st33" d="M113.9,64.1c0,0-3.8,0.3-2.8,6c0.5,0.4,1.1,0.8,1.8,1l2.1-6L113.9,64.1z"/>
<path class="st33" d="M126.2,64.1c0,0,3.8,0.3,2.8,6c-0.5,0.4-1.1,0.8-1.8,1l-2.1-6L126.2,64.1z"/>
<path class="st30" d="M114.1,54.6c0,0-0.3,0.7-0.7,1.5c-0.9,1.8,0.1,8.7,2.3,9.4c2.4,0.8,5.6,1.4,9,0.3c2.9-0.9,3.8-8.7,1.7-10.6
	c-0.2-0.2-0.5-0.5-0.7-0.7H114.1z"/>
<ellipse class="st30" cx="120.2" cy="54.2" rx="7.1" ry="5.9"/>
<path class="st4" d="M126.2,64.1h-12.4l-1.2,4.1c0,0-0.7,1.9,0.2,2.7c0.8,0.8,8.7,2.7,14.5,0.1c0.5-1.1,0.6-2.3,0.2-3.4
	c-0.6-1.9-0.2-0.1-0.2-0.1L126.2,64.1z"/>
<path class="st4" d="M126.3,64.1H114l-1.2,4.1c0,0-0.7,1.9,0.2,2.7c0.8,0.8,8.7,2.7,14.5,0.1c0.5-1.1,0.5-2.3,0.2-3.4
	c-0.6-1.9-0.2-0.1-0.2-0.1L126.3,64.1z"/>
<path class="st34" d="M126.2,64.1h-12.3l-1.2,4.1c0,0-0.7,1.9,0.2,2.7c0.8,0.8,8.7,2.7,14.5,0.1c0.5-1.1,0.5-2.3,0.2-3.4
	c-0.6-1.9-0.2-0.1-0.2-0.1L126.2,64.1z"/>
<path class="st4" d="M117.7,60.7h5l0,0v3.5c0,1-1,1.8-2.2,1.8l0,0h-0.6c-1.2,0-2.2-0.8-2.2-1.8l0,0L117.7,60.7L117.7,60.7z"/>
<path class="st33" d="M117.7,60.5h5l0,0v3.5c0,1-1,1.8-2.2,1.8l0,0h-0.6c-1.2,0-2.2-0.8-2.2-1.8l0,0L117.7,60.5L117.7,60.5z"/>
<path class="st4" d="M117.7,61.1c1.6,0.5,3.3,0.5,4.9,0v-0.5h-4.9V61.1z"/>
<ellipse class="st33" cx="120.2" cy="55.5" rx="7.1" ry="5.9"/>
<path class="st30" d="M113.4,53.3h13.5c0,0-1.2-4.5-6.3-4.3C115.5,49.3,113.4,53.3,113.4,53.3z"/>
<ellipse class="st33" cx="113.2" cy="55.3" rx="0.7" ry="1"/>
<ellipse class="st33" cx="127.1" cy="55.3" rx="0.7" ry="1"/>
<path class="st4" d="M113.4,53.4h13.5c0,0-1.2-4.6-6.3-4.3C115.5,49.4,113.4,53.4,113.4,53.4z"/>
<g class="st27">
	
		<linearGradient id="SVGID_5_" gradientUnits="userSpaceOnUse" x1="323.2203" y1="346.4456" x2="323.2203" y2="318.9344" gradientTransform="matrix(1 0 0 1 -203.29 -97)">
		<stop  offset="0" style="stop-color:#808080;stop-opacity:0.25"/>
		<stop  offset="0.54" style="stop-color:#808080;stop-opacity:0.12"/>
		<stop  offset="1" style="stop-color:#808080;stop-opacity:0.1"/>
	</linearGradient>
	<path class="st35" d="M136.4,235.6c0-7.6-7.4-13.7-16.5-13.7s-16.5,6.2-16.5,13.7c0,4.6,2.7,8.8,7.3,11.4v0.1
		c0.5,0.4,1.2,0.8,1.9,1l0-0.1c0.8,0.6,4,1.4,7.8,1.4h0.1c2.4,0,4.9-0.3,7.2-1.4c0,0,0,0,0.1-0.1c0.6-0.2,1.1-0.5,1.5-0.9l0-0.2
		C133.7,244.4,136.4,240.2,136.4,235.6z"/>
</g>
<ellipse class="st11" cx="119.9" cy="235.6" rx="16" ry="13.3"/>
<path class="st36" d="M113,240.8c0,0-3.8,0.3-2.8,6c0.5,0.4,1.1,0.8,1.8,1l2.1-6L113,240.8z"/>
<path class="st36" d="M125.4,240.8c0,0,3.8,0.3,2.8,6c-0.5,0.4-1.1,0.8-1.8,1l-2.1-6L125.4,240.8z"/>
<ellipse class="st30" cx="119.3" cy="231" rx="7.1" ry="5.9"/>
<path class="st36" d="M125.3,240.8h-12.4l-1.2,4.1c0,0-0.7,1.9,0.2,2.7c0.8,0.8,8.7,2.7,14.5,0.1c0.5-1.1,0.5-2.3,0.2-3.4
	c-0.6-1.9-0.2-0.1-0.2-0.1L125.3,240.8z"/>
<path class="st36" d="M125.5,240.8h-12.4l-1.2,4.1c0,0-0.7,1.9,0.2,2.7c0.8,0.8,8.7,2.7,14.5,0.1c0.5-1.1,0.5-2.3,0.2-3.4
	c-0.6-1.9-0.2-0.1-0.2-0.1L125.5,240.8z"/>
<path class="st36" d="M125.4,240.8H113l-1.2,4.1c0,0-0.7,1.9,0.2,2.7c0.8,0.8,8.7,2.7,14.5,0.1c0.5-1.1,0.5-2.3,0.2-3.4
	c-0.6-1.9-0.2-0.1-0.2-0.1L125.4,240.8z"/>
<path class="st4" d="M116.8,237.4h5l0,0v3.5c0,1-1,1.8-2.2,1.8H119c-1.2,0-2.2-0.8-2.2-1.8L116.8,237.4L116.8,237.4z"/>
<path class="st29" d="M116.8,237.3h5l0,0v3.5c0,1-1,1.8-2.2,1.8H119c-1.2,0-2.2-0.8-2.2-1.8L116.8,237.3L116.8,237.3z"/>
<path class="st4" d="M116.8,237.9c1.6,0.5,3.3,0.5,4.9,0v-0.5h-4.9V237.9z"/>
<ellipse class="st29" cx="119.3" cy="232.3" rx="7.1" ry="5.9"/>
<path class="st4" d="M112.5,230.2h13.5c0,0-1.2-4.5-6.3-4.3C114.6,226.2,112.5,230.2,112.5,230.2z"/>
<path class="st30" d="M112.5,230h13.5c0,0-1.2-4.6-6.2-4.3C114.7,226.1,112.5,230,112.5,230z"/>
<ellipse class="st29" cx="112.4" cy="232" rx="0.6" ry="1"/>
<ellipse class="st29" cx="126.2" cy="232" rx="0.7" ry="1"/>
<g class="st27">
	
		<linearGradient id="SVGID_6_" gradientUnits="userSpaceOnUse" x1="323.2203" y1="302.9153" x2="323.2203" y2="275.4041" gradientTransform="matrix(1 0 0 1 -203.29 -97)">
		<stop  offset="0" style="stop-color:#808080;stop-opacity:0.25"/>
		<stop  offset="0.54" style="stop-color:#808080;stop-opacity:0.12"/>
		<stop  offset="1" style="stop-color:#808080;stop-opacity:0.1"/>
	</linearGradient>
	<path class="st37" d="M136.4,192.1c0-7.6-7.4-13.7-16.5-13.7s-16.5,6.1-16.5,13.7c0,4.6,2.7,8.8,7.3,11.4v0.1
		c0.5,0.4,1.2,0.8,1.9,1l0-0.1c0.8,0.6,4,1.4,7.8,1.4h0.1c2.4,0,4.9-0.3,7.2-1.4c0,0,0,0,0.1-0.1c0.6-0.2,1.1-0.5,1.5-0.9l0-0.2
		C133.7,200.9,136.4,196.6,136.4,192.1z"/>
</g>
<ellipse class="st11" cx="119.8" cy="191.6" rx="16" ry="13.3"/>
<path class="st33" d="M113.4,196.9c0,0-3.8,0.3-2.8,6c0.5,0.4,1.1,0.8,1.8,1l2.1-6L113.4,196.9z"/>
<path class="st33" d="M125.7,196.9c0,0,3.8,0.3,2.8,6c-0.5,0.4-1.1,0.8-1.8,1l-2.1-6L125.7,196.9z"/>
<path class="st30" d="M113.5,187.4c0,0-1.8,7.8-2.8,7.3c0,0,9.5,6.9,18,0c0,0-1.5-5.6-3.6-7.3H113.5z"/>
<ellipse class="st30" cx="119.7" cy="187" rx="7.1" ry="5.9"/>
<path class="st4" d="M125.6,196.9h-12.4l-1.1,4.1c0,0-0.7,1.9,0.2,2.7s8.7,2.7,14.5,0.1c0.5-1.1,0.5-2.3,0.2-3.4
	c-0.6-1.9-0.2-0.1-0.2-0.1L125.6,196.9z"/>
<path class="st4" d="M125.8,196.9h-12.3l-1.2,4.1c0,0-0.7,1.9,0.2,2.7c0.8,0.8,8.7,2.7,14.5,0.1c0.5-1.1,0.5-2.3,0.2-3.4
	c-0.6-1.9-0.2-0.1-0.2-0.1L125.8,196.9z"/>
<path class="st38" d="M125.7,196.9h-12.4l-1.2,4.1c0,0-0.7,1.9,0.2,2.7c0.8,0.8,8.7,2.7,14.5,0.1c0.5-1.1,0.5-2.3,0.2-3.4
	c-0.6-1.9-0.2-0.1-0.2-0.1L125.7,196.9z"/>
<path class="st4" d="M117.1,193.5h5l0,0v3.5c0,1-1,1.8-2.2,1.8h-0.6c-1.2,0-2.2-0.8-2.2-1.8L117.1,193.5L117.1,193.5z"/>
<path class="st33" d="M117.1,193.3h5l0,0v3.5c0,1-1,1.8-2.2,1.8h-0.6c-1.2,0-2.2-0.8-2.2-1.8L117.1,193.3L117.1,193.3z"/>
<path class="st4" d="M117.2,193.9c1.6,0.5,3.3,0.5,5,0v-0.5h-5V193.9z"/>
<ellipse class="st33" cx="119.6" cy="188.3" rx="7.1" ry="5.9"/>
<path class="st30" d="M112.8,186h13.5c0,0-1.2-4.5-6.3-4.3C115,182,112.8,186,112.8,186z"/>
<ellipse class="st33" cx="112.7" cy="188" rx="0.6" ry="1"/>
<ellipse class="st33" cx="126.5" cy="188" rx="0.7" ry="1"/>
<path class="st4" d="M112.8,186.2h13.5c0,0-1.2-4.5-6.3-4.2C115,182.2,112.8,186.2,112.8,186.2z"/>
<g class="st27">
	
		<linearGradient id="SVGID_7_" gradientUnits="userSpaceOnUse" x1="323.2203" y1="258.4748" x2="323.2203" y2="230.963" gradientTransform="matrix(1 0 0 1 -203.29 -97)">
		<stop  offset="0" style="stop-color:#808080;stop-opacity:0.25"/>
		<stop  offset="0.54" style="stop-color:#808080;stop-opacity:0.12"/>
		<stop  offset="1" style="stop-color:#808080;stop-opacity:0.1"/>
	</linearGradient>
	<path class="st39" d="M136.4,147.7c0-7.6-7.4-13.7-16.5-13.7s-16.5,6.1-16.5,13.7c0,4.6,2.7,8.8,7.3,11.4v0.1
		c0.5,0.4,1.2,0.8,1.9,1l0-0.1c0.8,0.6,4,1.4,7.8,1.4h0.1c2.4,0,4.9-0.3,7.2-1.4c0,0,0,0,0.1-0.1c0.6-0.2,1.1-0.5,1.5-0.9l0-0.2
		C133.7,156.4,136.4,152.2,136.4,147.7z"/>
</g>
<ellipse class="st11" cx="119.9" cy="147.7" rx="16" ry="13.3"/>
<path class="st36" d="M113,152.9c0,0-3.8,0.3-2.8,6c0.5,0.4,1.1,0.8,1.8,1l2.1-6L113,152.9z"/>
<path class="st36" d="M125.4,152.9c0,0,3.8,0.3,2.8,6c-0.5,0.4-1.1,0.8-1.8,1l-2.1-6L125.4,152.9z"/>
<ellipse class="st30" cx="119.3" cy="143" rx="7.1" ry="5.9"/>
<path class="st36" d="M125.3,152.9h-12.4l-1.2,4.1c0,0-0.7,1.9,0.2,2.7c0.8,0.8,8.7,2.7,14.5,0.1c0.5-1.1,0.5-2.3,0.2-3.4
	c-0.6-1.9-0.2-0.1-0.2-0.1L125.3,152.9z"/>
<path class="st36" d="M125.5,152.9h-12.4l-1.2,4.1c0,0-0.7,1.9,0.2,2.7c0.8,0.8,8.7,2.7,14.5,0.1c0.5-1.1,0.5-2.3,0.2-3.4
	c-0.6-1.9-0.2-0.1-0.2-0.1L125.5,152.9z"/>
<path class="st36" d="M125.4,152.9H113l-1.2,4.1c0,0-0.7,1.9,0.2,2.7c0.8,0.8,8.7,2.7,14.5,0.1c0.5-1.1,0.5-2.3,0.2-3.4
	c-0.6-1.9-0.2-0.1-0.2-0.1L125.4,152.9z"/>
<path class="st4" d="M116.8,149.5h5l0,0v3.5c0,1-1,1.8-2.2,1.8l0,0H119c-1.2,0-2.2-0.8-2.2-1.8L116.8,149.5L116.8,149.5z"/>
<path class="st33" d="M116.8,149.3h5l0,0v3.5c0,1-1,1.8-2.2,1.8l0,0H119c-1.2,0-2.2-0.8-2.2-1.8l0,0L116.8,149.3L116.8,149.3z"/>
<path class="st4" d="M116.8,149.9c1.6,0.5,3.3,0.5,4.9,0v-0.5h-4.9V149.9z"/>
<ellipse class="st33" cx="119.3" cy="144.3" rx="7.1" ry="5.9"/>
<path class="st4" d="M112.5,142.2h13.5c0,0-1.2-4.5-6.3-4.3C114.6,138.2,112.5,142.2,112.5,142.2z"/>
<path class="st30" d="M112.5,142.1h13.5c0,0-1.2-4.6-6.2-4.3C114.7,138.1,112.5,142.1,112.5,142.1z"/>
<ellipse class="st33" cx="112.4" cy="144" rx="0.6" ry="1"/>
<ellipse class="st33" cx="126.2" cy="144" rx="0.7" ry="1"/>
<path class="st30" d="M113.3,139.2c0.2-0.5,0.6-1,1.1-1.4c1.4-1.2,3.8-1.4,5.1-2.8c0.3,0.4,0.1,0.9-0.4,1.1c0,0,0,0-0.1,0
	c1.2,0,2.5-0.1,3.2-0.9c0.3,0.6,0.2,1.4-0.4,1.9c1,0,2.2,0.6,2.2,1.5c0,0.6-0.4,1.1-1,1.4c-0.6,0.3-1.3,0.5-1.9,0.6
	C119.1,141,112,142.5,113.3,139.2z"/>
<g class="st27">
	
		<linearGradient id="SVGID_8_" gradientUnits="userSpaceOnUse" x1="264.2998" y1="91.3233" x2="264.2998" y2="82.8316" gradientTransform="matrix(1 0 0 1 0 -28)">
		<stop  offset="0" style="stop-color:#808080;stop-opacity:0.25"/>
		<stop  offset="0.54" style="stop-color:#808080;stop-opacity:0.12"/>
		<stop  offset="1" style="stop-color:#808080;stop-opacity:0.1"/>
	</linearGradient>
	<rect x="169.6" y="54.8" class="st40" width="189.4" height="8.5"/>
</g>
<rect x="170.4" y="55.5" class="st11" width="188.1" height="7"/>
<rect x="170.4" y="55.5" class="st34" width="149.2" height="7"/>
<g class="st27">
	
		<linearGradient id="SVGID_9_" gradientUnits="userSpaceOnUse" x1="264.2998" y1="137.2646" x2="264.2998" y2="128.7728" gradientTransform="matrix(1 0 0 1 0 -28)">
		<stop  offset="0" style="stop-color:#808080;stop-opacity:0.25"/>
		<stop  offset="0.54" style="stop-color:#808080;stop-opacity:0.12"/>
		<stop  offset="1" style="stop-color:#808080;stop-opacity:0.1"/>
	</linearGradient>
	<rect x="169.6" y="100.8" class="st41" width="189.4" height="8.5"/>
</g>
<rect x="170.4" y="101.4" class="st11" width="188.1" height="7"/>
<rect x="170.4" y="101.4" class="st2" width="184.4" height="7"/>
<g class="st27">
	
		<linearGradient id="SVGID_10_" gradientUnits="userSpaceOnUse" x1="264.2998" y1="179.9645" x2="264.2998" y2="171.4727" gradientTransform="matrix(1 0 0 1 0 -28)">
		<stop  offset="0" style="stop-color:#808080;stop-opacity:0.25"/>
		<stop  offset="0.54" style="stop-color:#808080;stop-opacity:0.12"/>
		<stop  offset="1" style="stop-color:#808080;stop-opacity:0.1"/>
	</linearGradient>
	<rect x="169.6" y="143.5" class="st42" width="189.4" height="8.5"/>
</g>
<rect x="170.4" y="144.1" class="st11" width="188.1" height="7"/>
<rect x="170.4" y="144.1" class="st38" width="28.8" height="7"/>
<g class="st27">
	
		<linearGradient id="SVGID_11_" gradientUnits="userSpaceOnUse" x1="264.2998" y1="224.352" x2="264.2998" y2="215.8602" gradientTransform="matrix(1 0 0 1 0 -28)">
		<stop  offset="0" style="stop-color:#808080;stop-opacity:0.25"/>
		<stop  offset="0.54" style="stop-color:#808080;stop-opacity:0.12"/>
		<stop  offset="1" style="stop-color:#808080;stop-opacity:0.1"/>
	</linearGradient>
	<rect x="169.6" y="187.9" class="st43" width="189.4" height="8.5"/>
</g>
<rect x="170.4" y="188.5" class="st11" width="188.1" height="7"/>
<rect x="170.4" y="188.5" class="st2" width="170.7" height="7"/>
<g class="st27">
	
		<linearGradient id="SVGID_12_" gradientUnits="userSpaceOnUse" x1="264.2998" y1="267.9359" x2="264.2998" y2="259.4441" gradientTransform="matrix(1 0 0 1 0 -28)">
		<stop  offset="0" style="stop-color:#808080;stop-opacity:0.25"/>
		<stop  offset="0.54" style="stop-color:#808080;stop-opacity:0.12"/>
		<stop  offset="1" style="stop-color:#808080;stop-opacity:0.1"/>
	</linearGradient>
	<rect x="169.6" y="231.4" class="st44" width="189.4" height="8.5"/>
</g>
<rect x="170.4" y="232.1" class="st11" width="188.1" height="7"/>
<rect x="170.4" y="232.1" class="st34" width="58.6" height="7"/>
<path class="st0" d="M724.2,672.1c-18.7,0-33.9-3.8-33.9-8.5s15.2-8.5,33.9-8.5s31,35.6,31,40.3S742.9,672.1,724.2,672.1"/>
<path class="st0" d="M534.3,667.6c0-4.7,15.2-8.5,33.9-8.5s33.9,3.8,33.9,8.5s-15.2,8.5-33.9,8.5"/>
<linearGradient id="SVGID_13_" gradientUnits="userSpaceOnUse" x1="642.4648" y1="74.4347" x2="642.4648" y2="317.7047" gradientTransform="matrix(1 0 0 -1 0 728)">
	<stop  offset="0" style="stop-color:#808080;stop-opacity:0.25"/>
	<stop  offset="0.54" style="stop-color:#808080;stop-opacity:0.12"/>
	<stop  offset="1" style="stop-color:#808080;stop-opacity:0.1"/>
</linearGradient>
<polyline class="st45" points="742.7,410.3 742.7,653.6 542.2,653.6 542.2,410.3 "/>
<polyline class="st13" points="739.7,419.6 739.7,649.6 545.7,649.6 545.7,419.6 "/>
<rect x="551.3" y="592" class="st46" width="75.5" height="4.5"/>
<linearGradient id="SVGID_14_" gradientUnits="userSpaceOnUse" x1="649.5544" y1="130.9975" x2="649.5544" y2="136.5036" gradientTransform="matrix(1 0 0 -1 0 728)">
	<stop  offset="0" style="stop-color:#808080;stop-opacity:0.25"/>
	<stop  offset="0.54" style="stop-color:#808080;stop-opacity:0.12"/>
	<stop  offset="1" style="stop-color:#808080;stop-opacity:0.1"/>
</linearGradient>
<rect x="636.9" y="591.5" class="st47" width="25.3" height="5.5"/>
<linearGradient id="SVGID_15_" gradientUnits="userSpaceOnUse" x1="649.5544" y1="102.9664" x2="649.5544" y2="108.4725" gradientTransform="matrix(1 0 0 -1 0 728)">
	<stop  offset="0" style="stop-color:#808080;stop-opacity:0.25"/>
	<stop  offset="0.54" style="stop-color:#808080;stop-opacity:0.12"/>
	<stop  offset="1" style="stop-color:#808080;stop-opacity:0.1"/>
</linearGradient>
<rect x="636.9" y="619.5" class="st48" width="25.3" height="5.5"/>
<linearGradient id="SVGID_16_" gradientUnits="userSpaceOnUse" x1="701.2075" y1="102.9664" x2="701.2075" y2="108.4725" gradientTransform="matrix(1 0 0 -1 0 728)">
	<stop  offset="0" style="stop-color:#808080;stop-opacity:0.25"/>
	<stop  offset="0.54" style="stop-color:#808080;stop-opacity:0.12"/>
	<stop  offset="1" style="stop-color:#808080;stop-opacity:0.1"/>
</linearGradient>
<rect x="688.5" y="619.5" class="st49" width="25.3" height="5.5"/>
<rect x="637.9" y="592" class="st2" width="23.8" height="4.5"/>
<rect x="637.9" y="620" class="st2" width="23.8" height="4.5"/>
<rect x="689.1" y="620" class="st2" width="23.8" height="4.5"/>
<rect x="551.3" y="606" class="st11" width="75.5" height="4.5"/>
<rect x="637.9" y="606" class="st46" width="75.5" height="4.5"/>
<rect x="637.9" y="634" class="st11" width="75.5" height="4.5"/>
<rect x="551.3" y="620" class="st46" width="75.5" height="4.5"/>
<rect x="551.3" y="634" class="st11" width="75.5" height="4.5"/>
<polyline class="st11" points="647.5,454.3 647.5,458.8 605,458.8 605,454.3 "/>
<polyline class="st11" points="669.8,454.3 669.8,458.8 655.1,458.8 655.1,454.3 "/>
<rect x="605" y="469.4" class="st11" width="42.5" height="4.5"/>
<rect x="655.1" y="469.4" class="st11" width="14.7" height="4.5"/>
<rect x="605" y="461.9" class="st11" width="75.5" height="4.5"/>
<linearGradient id="SVGID_17_" gradientUnits="userSpaceOnUse" x1="704.7523" y1="268.6503" x2="704.7523" y2="274.1564" gradientTransform="matrix(1 0 0 -1 0 728)">
	<stop  offset="0" style="stop-color:#808080;stop-opacity:0.25"/>
	<stop  offset="0.54" style="stop-color:#808080;stop-opacity:0.12"/>
	<stop  offset="1" style="stop-color:#808080;stop-opacity:0.1"/>
</linearGradient>
<polyline class="st50" points="709.3,453.8 709.3,459.3 700.2,459.3 700.2,453.8 "/>
<linearGradient id="SVGID_18_" gradientUnits="userSpaceOnUse" x1="704.7523" y1="261.1419" x2="704.7523" y2="266.648" gradientTransform="matrix(1 0 0 -1 0 728)">
	<stop  offset="0" style="stop-color:#808080;stop-opacity:0.25"/>
	<stop  offset="0.54" style="stop-color:#808080;stop-opacity:0.12"/>
	<stop  offset="1" style="stop-color:#808080;stop-opacity:0.1"/>
</linearGradient>
<rect x="700.2" y="461.4" class="st51" width="9.1" height="5.5"/>
<polyline class="st19" points="708.8,454.3 708.8,458.8 700.7,458.8 700.7,454.3 "/>
<rect x="700.7" y="461.9" class="st18" width="8.1" height="4.5"/>
<linearGradient id="SVGID_19_" gradientUnits="userSpaceOnUse" x1="704.7523" y1="253.6336" x2="704.7523" y2="259.1397" gradientTransform="matrix(1 0 0 -1 0 728)">
	<stop  offset="0" style="stop-color:#808080;stop-opacity:0.25"/>
	<stop  offset="0.54" style="stop-color:#808080;stop-opacity:0.12"/>
	<stop  offset="1" style="stop-color:#808080;stop-opacity:0.1"/>
</linearGradient>
<rect x="700.2" y="468.9" class="st52" width="9.1" height="5.5"/>
<rect x="700.7" y="469.4" class="st2" width="8.1" height="4.5"/>
<linearGradient id="SVGID_20_" gradientUnits="userSpaceOnUse" x1="642.718" y1="151.5203" x2="642.718" y2="226.6036" gradientTransform="matrix(1 0 0 -1 0 728)">
	<stop  offset="0" style="stop-color:#808080;stop-opacity:0.25"/>
	<stop  offset="0.54" style="stop-color:#808080;stop-opacity:0.12"/>
	<stop  offset="1" style="stop-color:#808080;stop-opacity:0.1"/>
</linearGradient>
<rect x="549.8" y="501.4" class="st53" width="185.8" height="75.1"/>
<rect x="551.3" y="502.9" class="st46" width="181.8" height="71.1"/>
<polygon class="st54" points="556.9,508.4 733.1,508.4 733.1,502.9 551.3,502.9 551.3,574 556.9,574 "/>
<linearGradient id="SVGID_21_" gradientUnits="userSpaceOnUse" x1="778.4103" y1="24.9099" x2="778.4103" y2="101.1969" gradientTransform="matrix(0.9959 -9.063258e-02 -9.063258e-02 -0.9959 -121.9711 676.3011)">
	<stop  offset="0" style="stop-color:#808080;stop-opacity:0.25"/>
	<stop  offset="0.54" style="stop-color:#808080;stop-opacity:0.12"/>
	<stop  offset="1" style="stop-color:#808080;stop-opacity:0.1"/>
</linearGradient>
<polygon class="st55" points="550.7,513.5 737.3,496.7 744.3,572.5 557.7,589.2 "/>
<polygon class="st13" points="553.9,515.2 735,498.9 741.5,569.7 560.5,586 "/>
<path class="st46" d="M567.5,573.3l-3.1-39.4c0,0,16.2-17,48.9-4.4s48.1,3.7,53.5-4.8c5.3-8.5,32.9-18,41.9-3.8
	c8.9,14.3,19.7-1.8,19.7-1.8l3.6,39.4L567.5,573.3z"/>
<line class="st56" x1="583.9" y1="525.3" x2="584.2" y2="528.2"/>
<line class="st57" x1="584.7" y1="534" x2="587.6" y2="565.5"/>
<line class="st56" x1="587.9" y1="568.4" x2="588.2" y2="571.4"/>
<line class="st56" x1="615.1" y1="530.1" x2="615.3" y2="533.1"/>
<line class="st58" x1="615.9" y1="539.6" x2="618" y2="562.4"/>
<line class="st56" x1="618.3" y1="565.7" x2="618.6" y2="568.7"/>
<line class="st56" x1="646.8" y1="535.5" x2="647.1" y2="538.5"/>
<line class="st59" x1="647.6" y1="543.4" x2="649.3" y2="560.4"/>
<line class="st56" x1="649.6" y1="562.9" x2="649.9" y2="565.9"/>
<line class="st56" x1="675.4" y1="517.8" x2="675.7" y2="520.8"/>
<line class="st60" x1="676.2" y1="526.4" x2="679" y2="557.4"/>
<line class="st56" x1="679.3" y1="560.2" x2="679.6" y2="563.2"/>
<line class="st56" x1="696" y1="513.7" x2="696.3" y2="516.7"/>
<line class="st61" x1="696.8" y1="522.6" x2="699.8" y2="555.3"/>
<line class="st56" x1="700.1" y1="558.3" x2="700.4" y2="561.3"/>
<ellipse class="st19" cx="583.8" cy="525.1" rx="2.5" ry="2.5"/>
<ellipse class="st17" cx="614.8" cy="530.3" rx="2.5" ry="2.5"/>
<ellipse class="st18" cx="646.8" cy="535.5" rx="2.5" ry="2.5"/>
<linearGradient id="SVGID_22_" gradientUnits="userSpaceOnUse" x1="808.2715" y1="82.0516" x2="808.2715" y2="89.0601" gradientTransform="matrix(0.9959 -9.063258e-02 -9.063258e-02 -0.9959 -121.981 676.3047)">
	<stop  offset="0" style="stop-color:#808080;stop-opacity:0.25"/>
	<stop  offset="0.54" style="stop-color:#808080;stop-opacity:0.12"/>
	<stop  offset="1" style="stop-color:#808080;stop-opacity:0.1"/>
</linearGradient>
<ellipse class="st62" cx="675.2" cy="517.8" rx="3.5" ry="3.5"/>
<linearGradient id="SVGID_23_" gradientUnits="userSpaceOnUse" x1="829.5272" y1="84.0241" x2="829.5272" y2="91.0325" gradientTransform="matrix(0.9959 -9.063258e-02 -9.063258e-02 -0.9959 -121.9732 676.2984)">
	<stop  offset="0" style="stop-color:#808080;stop-opacity:0.25"/>
	<stop  offset="0.54" style="stop-color:#808080;stop-opacity:0.12"/>
	<stop  offset="1" style="stop-color:#808080;stop-opacity:0.1"/>
</linearGradient>
<ellipse class="st63" cx="696.2" cy="513.9" rx="3.5" ry="3.5"/>
<ellipse class="st2" cx="675.2" cy="517.8" rx="2.5" ry="2.5"/>
<ellipse class="st2" cx="696.2" cy="513.9" rx="2.5" ry="2.5"/>
<ellipse class="st18" cx="728.3" cy="520.1" rx="2.5" ry="2.5"/>
<g class="st14">
	
		<linearGradient id="SVGID_24_" gradientUnits="userSpaceOnUse" x1="888.035" y1="63.5775" x2="888.035" y2="63.7077" gradientTransform="matrix(1 0 0 -1 -154.5 633.52)">
		<stop  offset="0" style="stop-color:#808080;stop-opacity:0.25"/>
		<stop  offset="0.54" style="stop-color:#808080;stop-opacity:0.12"/>
		<stop  offset="1" style="stop-color:#808080;stop-opacity:0.1"/>
	</linearGradient>
	<path class="st64" d="M733.4,569.8l0,0.1C733.9,569.7,733.4,569.8,733.4,569.8z"/>
</g>
<g class="st14">
	
		<linearGradient id="SVGID_25_" gradientUnits="userSpaceOnUse" x1="872.6635" y1="-20.4357" x2="872.6635" y2="66.0492" gradientTransform="matrix(1 0 0 -1 -154.5 633.52)">
		<stop  offset="0" style="stop-color:#808080;stop-opacity:0.25"/>
		<stop  offset="0.54" style="stop-color:#808080;stop-opacity:0.12"/>
		<stop  offset="1" style="stop-color:#808080;stop-opacity:0.1"/>
	</linearGradient>
	<path class="st65" d="M729.2,653.9l8.2-1.3l-1.1-5l0,0v-0.1h0l-5.8-26.5v-19.3c0-0.2,0-0.5,0-0.7c8.7-11.4,3.5-29.4,3-31
		c-0.1,0-0.2,0.1-0.4,0.2c-0.1-0.7-0.2-1.4-0.4-2.1c0,0-2.5-1.6-3.9,0.5c-1.2,1.8-0.3,2.9-0.1,3.1l-0.2,0.1c0.4,0.6,0.7,1.3,0.8,2
		c-0.1-0.2-0.2-0.3-0.3-0.5c-0.3-0.1-0.5-0.1-0.5-0.1l-0.1-0.1l-0.2,0.1c0.9,1.3,1.2,3.5,1.1,6.2c-0.3-0.4-0.6-0.8-1-1.2
		c-1.6-1.5-3.7-2.4-5.9-2.4h-0.4c-0.2,0-0.5,0-0.7,0h-0.2l-0.3,0l-0.3,0.1l-0.2,0.1l-0.4,0.1l-0.2,0c-0.2,0.1-0.3,0.1-0.5,0.2
		c-0.6,0.3-1.1,0.5-1.7,0.6c-0.1,0-0.2,0-0.2,0l0,0c-0.7,0-1.3-0.1-1.9-0.5l-0.2-0.1c-0.1-0.1-0.1-0.1-0.2-0.2
		c-0.1,0.2-0.1,0.4-0.1,0.5c0,0.4,0.3,0.8,0.6,1.1c0.1,0.1,0.2,0.2,0.3,0.2c0.2,0.1,0.3,0.1,0.5,0.2h0.2h0c-0.1,0.1-0.2,0.1-0.4,0.2
		h0c-0.1,0-0.3,0.1-0.4,0.1l0,0c-0.7,0.2-1.4,0.2-2,0l0,0l-0.2-0.1c-0.1,0-0.2-0.1-0.3-0.1c0,0.1,0.1,0.1,0.1,0.2l0,0.1l0.1,0.1
		l0.1,0.1l0.1,0.1l0.1,0.1l0.1,0.1l0.1,0l0.2,0.2l0.1,0l0.1,0.1l0.1,0.1l0.1,0.1l0.1,0.1l0.1,0.1l0.1,0l0.1,0.1l0.2,0.1l0.1,0h0.1
		h0.1h0.1h0.5c0.3,0,0.5-0.1,0.8-0.2l-0.5,0.2l0,0l-0.2,0.1l-0.2,0.1l-0.2,0.1l-0.2,0.1l-0.2,0.1l-0.3,0.1l-0.2,0l-0.3,0l-0.2,0
		l-0.3,0h-0.2h-0.3h-0.2h-0.5c0.3,0.1,0.5,0.2,0.8,0.4c0.1,0.1,0.3,0.2,0.5,0.3c0.1,0,0.2,0,0.2,0.1h0.1h0.2h0.7h0.2
		c0.5,0,0.9,0.2,1.3,0.4c0.2,0.1,0.4,0.3,0.6,0.5c-0.1,0.1-0.1,0.2-0.2,0.3c-0.1,0.1-0.1,0.2-0.2,0.3c-0.1,0.2-0.2,0.4-0.3,0.6
		c-0.3,0.8-0.4,1.6-0.4,2.4c0,0.2,0,0.3,0,0.5c0,0,0,0.1,0,0.1c0,0.1,0,0.2,0,0.4v0.1c0,0.1,0,0.3,0.1,0.4v0.1
		c0,0.1,0.1,0.2,0.1,0.4l0,0.1c0.1,0.3,0.2,0.6,0.3,0.8l0,0.1c0.1,0.1,0.1,0.2,0.2,0.4v0c0.1,0.1,0.2,0.3,0.2,0.4v0
		c0.1,0.1,0.2,0.2,0.2,0.4l0,0c0.2,0.2,0.4,0.5,0.6,0.7l0,0c0.6,0.6,1.2,1.1,1.9,1.4c0,0.1,0,0.2-0.1,0.3l0,0c0,0.1,0,0.2,0,0.3v2.6
		c-0.2,0.1-0.3,0.2-0.4,0.3c-6.3-2.8-15.8-23-15.8-23h-0.2c0.9-0.7,0-3.6,0-3.6c-0.5-0.3-1.1-0.5-1.8-0.6h-0.5H701h-0.1h-0.1h-0.1
		l-0.1,0h-0.1l-0.2,0.1l0,0l-0.1,0.1l-0.1,0l-0.1,0.1l-0.1,0.3l-0.1,0.1l-0.1,0l-0.1,0.1l-0.1,0.1l-0.1,0.1l-0.1,0.1l-0.1,0.1l0,0.1
		l-0.1,0.2c-1.4,2,0,3.2,0,3.2c-0.1,0.8-0.1,1.6-0.1,2.4c-0.1,14.7,15.9,26.2,16.7,26.7c-0.4,0.9-3.3,9.1,0,19.3c0,0,0,0,0,0.1
		c-7.8,7.1-11.2,17.7-9,28l0.1,0.3h0.1c0,0.1,0,0.1-0.1,0.2c0,0.1-0.1,0.2-0.1,0.4c-0.1,0.2-0.2,0.4-0.4,0.5l0,0
		c-0.2,0.2-0.3,0.4-0.5,0.5l-0.2,0.2c-0.8,0.8-1.6,1.5-1,1.8h8.7v-3.8h0.2c0,0-0.1-0.1-0.2-0.3v0h0c-0.5-1.2-1.5-4.8,0.2-10.3
		c2.1-6.8,10.1-10.2,10.1-10.2l0.1,0.5h0l6.3,20.5c0,0.1,0,0.2,0,0.2c0,0.2-0.1,0.4-0.1,0.6c0,0.1-0.1,0.3-0.2,0.4
		c-0.4,0.8-1.1,1.7-1.4,2.4c0,0.1-0.1,0.2-0.1,0.3c0,0.1,0,0.2,0,0.4c0,0.2,0.1,0.3,0.3,0.3l0,0h0.1L729.2,653.9L729.2,653.9z
		 M726.8,595.5c-0.2-0.1-0.3-0.2-0.5-0.2v-2.5c0-0.2,0-0.4-0.1-0.6c0.5-0.3,1.1-0.6,1.5-1C727.5,592.8,727.1,594.2,726.8,595.5
		L726.8,595.5z"/>
</g>
<path class="st66" d="M699.3,574.8c0,0-1.5-1.3,0-3.5s4.3-0.5,4.3-0.5s1,3.3,0,4C702.6,575.5,699.3,574.8,699.3,574.8z"/>
<path id="cbb1ca8a-3a06-4d8d-9881-c3637d2b9b50" class="st67" d="M715.1,659.2h-7c0.1,0.7-0.2,1.3-0.7,1.8c-0.9,1.1-2.9,2.4-2,2.8
	h9.7V659.2z"/>
<path class="st68" d="M707.9,661c0.5-0.5,0.7-1.1,0.7-1.8h-0.5c0.1,0.7-0.2,1.3-0.7,1.8c-0.9,1.1-2.9,2.4-2,2.8h0.5
	C705.1,663.4,707,662.1,707.9,661z"/>
<path id="ec846da8-b8c9-4838-98ee-b96510078eab" class="st67" d="M740.1,657.8l-6.6,1.1c0.2,0.8,0.1,1.6-0.3,2.3
	c-0.7,1.5-2.3,3.4-1.4,3.8l9.5-1.5L740.1,657.8z"/>
<path class="st67" d="M736.9,571.7c0,0,7.5,23.5-5.1,36.5l-3.6-2.8c0,0,7.5-25.6,3.3-31.6C738.8,571.4,736.9,571.7,736.9,571.7z"/>
<path class="st66" d="M731.7,573.8c0,0-1.5-1.3,0-3.5c1.5-2.3,4.3-0.5,4.3-0.5s1,3.3,0,4C735.1,574.5,731.7,573.8,731.7,573.8z"/>
<path class="st68" d="M733.8,661.1c0.4-0.7,0.5-1.5,0.3-2.3l6.1-1v-0.1l-6.6,1.1c0.2,0.8,0.1,1.6-0.3,2.3c-0.7,1.5-2.3,3.4-1.4,3.8
	l0.4-0.1C731.6,664.3,733.1,662.5,733.8,661.1z"/>
<path class="st66" d="M725.5,593.6L725.5,593.6c2,0,3.6,1.6,3.6,3.5v3.4c0,2-1.6,3.5-3.6,3.5l0,0c-2,0-3.6-1.6-3.6-3.5v-3.4
	C721.9,595.2,723.5,593.6,725.5,593.6z"/>
<path class="st68" d="M728.7,606.9c0,0,7.4-25.3,3.4-31.5c-0.4-0.1-0.6-0.1-0.6-0.1l-0.1-0.1l-0.2,0.1c4.2,6-3.3,31.6-3.3,31.6
	l3.6,2.8l0.3-0.3L728.7,606.9z"/>
<ellipse class="st66" cx="725.6" cy="589.4" rx="7.9" ry="7.8"/>
<path class="st68" d="M722.8,600.5v-3.4c0-0.2,0-0.5,0.1-0.7c-3.9-2-5.4-6.7-3.4-10.5c1.3-2.5,3.8-4.1,6.6-4.2h-0.4
	c-4.4,0-7.9,3.5-7.9,7.8c0,2.9,1.7,5.6,4.3,7c-0.1,0.2-0.1,0.5-0.1,0.7v3.4c0,1.9,1.6,3.5,3.5,3.5c0.2,0,0.3,0,0.5,0
	C724.1,603.8,722.8,602.3,722.8,600.5z"/>
<path class="st67" d="M733.6,628.4c0,0-15.3,1.7-15.8,0c-4-12,0-21.4,0-21.4c0-4.3,3.5-7.8,7.9-7.8l0,0c4.4,0,7.9,3.5,7.9,7.8V628.4
	z"/>
<path class="st69" d="M733.6,628.4l6.9,31.3h-6.9l-7.1-23.2c0,0-8.9,3.8-11.2,11.4c-2.3,7.6,0,11.9,0,11.9h-7.4l-0.1-0.3
	c-2.5-11.3,1.3-23.1,10-30.9l0,0"/>
<path class="st68" d="M718.7,628.4c-4-12,0-21.4,0-21.4c0-4.1,3.2-7.5,7.4-7.8c-0.2,0-0.3,0-0.5,0l0,0c-4.4,0-7.9,3.5-7.9,7.8
	c0,0-4,9.5,0,21.4c0.2,0.6,2.3,0.8,4.9,0.8C720.5,629.1,718.9,628.9,718.7,628.4z"/>
<path class="st67" d="M717.7,606.8c0,0-20.4-14.1-18.4-32h4.6c0,0,11,23.5,18,25.7S717.7,606.8,717.7,606.8z"/>
<g class="st14">
	<path class="st13" d="M726.6,637l7,22.8h1l-7.1-23.2C727.5,636.6,727.2,636.7,726.6,637z"/>
	<path class="st13" d="M718.8,628.5h-1c-8.7,7.8-12.5,19.6-10,30.9l0.1,0.3h1l-0.1-0.3C706.3,648.1,710.2,636.3,718.8,628.5z"/>
</g>
<path class="st68" d="M700.1,575h-0.8c-2,17.9,18.4,32,18.4,32l0.5-0.2C715.8,605.2,698.2,591.8,700.1,575z"/>
<path class="st69" d="M719.3,585.9c0.4,1,0.8,2.1,0.9,3.1c0.5,2.2,1.7,4.4,3.6,5.5c1.1,0.6,2.3,0.9,3.5,1c1.9,0.1,3.9-0.2,5.3-1.6
	c0.8-0.9,1.4-2,1.6-3.2c0.8-3.6-0.3-7.3-2.9-10c-2.7-2.6-6.6-3.4-10.1-2.1c-0.6,0.3-1.3,0.5-1.9,0.7c-1,0.2-2.1-0.2-2.8-0.9
	c-0.3,0.9,0.2,1.9,1.2,2.2c0.2,0.1,0.4,0.1,0.5,0.1c-1.2,0.6-2.5,0.6-3.8,0.2c0.7,1.5,2.5,2.2,4.1,1.6c-1.4,0.6-3,0.9-4.6,0.9
	c0.3,0,1,0.6,1.4,0.7c0.5,0.1,1,0.1,1.5,0.1C717.9,584.4,718.8,585,719.3,585.9z"/>
<g class="st14">
	<path class="st13" d="M718.2,580.7c-0.6,0.3-1.2,0.4-1.9,0.5c0.8,0,1.6-0.1,2.4-0.5c-1,0-1.8-0.8-1.8-1.8c0-0.1,0-0.1,0-0.2
		c-0.2-0.1-0.3-0.2-0.4-0.4c-0.3,0.9,0.2,1.9,1.2,2.2C717.9,580.7,718.1,580.7,718.2,580.7z"/>
	<path class="st13" d="M719.8,579.4c0.7-0.2,1.3-0.4,1.9-0.7c1-0.4,2-0.6,3-0.6c-1.2,0-2.4,0.2-3.5,0.6c-0.6,0.3-1.3,0.5-1.9,0.7
		c-0.1,0-0.2,0-0.3,0C719.3,579.5,719.6,579.5,719.8,579.4z"/>
	<path class="st13" d="M715.8,584.2c-0.4-0.1-1-0.7-1.4-0.7c1.6,0,3.1-0.3,4.6-0.9c-0.3,0.1-0.7,0.2-1,0.2c-1.3,0.5-2.7,0.7-4.1,0.7
		c0.3,0,1,0.6,1.4,0.7c0.3,0.1,0.7,0.1,1.1,0.1C716.2,584.3,716,584.2,715.8,584.2z"/>
	<path class="st13" d="M727.9,595.5c-1.2,0-2.5-0.4-3.5-1c-2-1.1-3.1-3.3-3.6-5.5c-0.2-1.1-0.5-2.1-0.9-3.1
		c-0.5-0.9-1.4-1.6-2.5-1.6c-0.3,0-0.5,0-0.8,0h0.2c1.1,0.1,2,0.7,2.5,1.6c0.4,1,0.8,2.1,0.9,3.1c0.5,2.2,1.7,4.4,3.6,5.5
		c1.1,0.6,2.3,0.9,3.5,1c0.3,0,0.6,0,0.9,0H727.9z"/>
	<path class="st13" d="M717.6,582.7c-1.1-0.1-2.1-0.7-2.6-1.6c-0.2,0-0.4-0.1-0.6-0.2C715,582.1,716.3,582.9,717.6,582.7z"/>
</g>
<path class="st68" d="M699.8,574.8c0,0-1.5-1.3,0-3.5c0.4-0.7,1.1-1.1,1.9-1.1c-1-0.1-1.9,0.3-2.4,1.1c-1.5,2.3,0,3.5,0,3.5
	c1,0.2,2,0.3,3,0.3C701.5,575.1,700.6,575,699.8,574.8z"/>
<g class="st14">
	
		<linearGradient id="SVGID_26_" gradientUnits="userSpaceOnUse" x1="707.4282" y1="58.617" x2="707.4282" y2="58.7722" gradientTransform="matrix(1 0 0 -1 -154.5 633.52)">
		<stop  offset="0" style="stop-color:#808080;stop-opacity:0.25"/>
		<stop  offset="0.54" style="stop-color:#808080;stop-opacity:0.12"/>
		<stop  offset="1" style="stop-color:#808080;stop-opacity:0.1"/>
	</linearGradient>
	<path class="st70" d="M553,574.9l0-0.1C553,574.8,552.5,574.7,553,574.9z"/>
</g>
<linearGradient id="SVGID_27_" gradientUnits="userSpaceOnUse" x1="726.1158" y1="-39.7421" x2="726.1158" y2="61.6014" gradientTransform="matrix(1 0 0 -1 -154.5 633.52)">
	<stop  offset="0" style="stop-color:#808080;stop-opacity:0.25"/>
	<stop  offset="0.54" style="stop-color:#808080;stop-opacity:0.12"/>
	<stop  offset="1" style="stop-color:#808080;stop-opacity:0.1"/>
</linearGradient>
<path class="st71" d="M581.5,673.2c1-1.9-3.1-3-4.2-3.2l0-0.3c0.5-3.7,0.6-7.4,0.4-11.1c1.3-0.5,2.5-1.2,3.5-2.1l0,0l0.1-0.1l0,0
	l0,0l-7.4-20.5c1.4-5.8-3.4-11.9-0.9-15s1-6.9,0.7-7.6c6.9-3,21-10.5,24.9-23.5c0.3-0.9,0.5-1.8,0.7-2.8c0,0,2-0.8,1.1-3.6
	c0-0.2-0.1-0.3-0.2-0.5c0-0.1-0.1-0.1-0.1-0.1c0-0.1-0.1-0.2-0.2-0.3l-0.1-0.1c-0.1-0.1-0.1-0.1-0.2-0.2l-0.1-0.1
	c-0.1-0.1-0.1-0.1-0.2-0.2l-0.1-0.1l-0.2-0.1l-0.1-0.1l-0.2-0.1l-0.1,0c-0.1,0-0.2-0.1-0.3-0.1l0,0c-0.7-0.1-1.5-0.1-2.2,0.1
	c0,0-2.1,3.1-1.3,4.2l-0.3-0.1c0,0-15.8,17.4-24.7,20.6c-0.2-0.2-0.5-0.3-0.7-0.4v-3.3c0-0.1,0-0.3,0-0.4l0,0c0-0.1,0-0.3-0.1-0.4
	l0.1,0l0.3-0.1l0.4-0.2l0.2-0.2c0.2-0.1,0.4-0.3,0.5-0.4l0.2-0.2c0.1-0.1,0.2-0.2,0.3-0.3l0.2-0.2c0.1-0.1,0.3-0.3,0.4-0.4l0.1-0.2
	c0.1-0.2,0.2-0.3,0.3-0.5l0.1-0.2c0.1-0.2,0.2-0.3,0.3-0.5l0.1-0.2c0.1-0.2,0.2-0.4,0.3-0.6l0.1-0.2c0.1-0.2,0.1-0.4,0.2-0.5
	c0-0.1,0-0.1,0.1-0.2c0.1-0.2,0.1-0.5,0.2-0.7c0-0.1,0-0.1,0-0.1c0-0.2,0.1-0.4,0.1-0.6c0-0.1,0-0.1,0-0.2c0-0.3,0-0.5,0-0.8
	c0-1.9-0.7-3.8-1.9-5.4c0.7-1,1.1-1.7,1.1-1.7c-0.4-0.3-0.8-0.5-1.2-0.8l-0.4-0.2c-0.3-0.2-0.5-0.3-0.8-0.5l-0.4-0.2
	c-0.2-0.1-0.5-0.2-0.7-0.4l-0.5-0.2l-0.7-0.3l-0.4-0.2c-0.2-0.1-0.4-0.2-0.7-0.2l-0.4-0.1c-0.2-0.1-0.5-0.1-0.7-0.2l-0.4-0.1
	c-0.3-0.1-0.5-0.1-0.8-0.2l-0.3-0.1c-0.3-0.1-0.7-0.1-1-0.1l0,0c-2.1-0.2-4.2,0.1-6.1,0.9c0.1-2.4,0.5-4.4,1.4-5.6l-0.2-0.1
	l-0.1,0.1c0,0-0.2,0.1-0.6,0.1c-0.1,0.2-0.2,0.4-0.3,0.6c0.2-0.8,0.5-1.7,1-2.4l-0.2-0.1c0.3-0.3,1.4-1.6-0.1-3.8
	c-1.7-2.5-4.7-0.6-4.7-0.6c-0.2,0.8-0.4,1.7-0.5,2.5c-0.2-0.1-0.4-0.2-0.5-0.2c-1.5,5.1-2.3,10.4-2.4,15.7
	c-5.5,7.7-7.8,19.2-8.2,21.6l0,0l0,0.2l0,0c0,0.2,0,0.3,0,0.3l14.3,0.3c0,0.1,0,0.1,0,0.1v22.4l-10.4,21.8c0,0,4,0.1,9.9,0.9
	l-1.7,11.7l0,0l-0.6,3.3"/>
<linearGradient id="SVGID_28_" gradientUnits="userSpaceOnUse" x1="720.6052" y1="-39.7421" x2="720.6052" y2="-25.5814" gradientTransform="matrix(1 0 0 -1 -154.5 633.52)">
	<stop  offset="0" style="stop-color:#808080;stop-opacity:0.25"/>
	<stop  offset="0.54" style="stop-color:#808080;stop-opacity:0.12"/>
	<stop  offset="1" style="stop-color:#808080;stop-opacity:0.1"/>
</linearGradient>
<path class="st72" d="M563.9,673.3c1.1-2.2-4.4-3.3-4.4-3.3h-0.1l2.2-10.9c1,0.2,1.9,0.3,2.9,0.5c1.5,0.3,3,0.4,4.5,0.5l0,0
	c1.2,0,2.5,0,3.7-0.2c0.7,5.9-0.2,9.4-0.4,10h-0.1l-0.6,3.3"/>
<path class="st17" d="M554.6,578.7c0,0-7.5,23.5,5.1,36.5l3.6-2.8c0,0-7.5-25.6-3.3-31.6C552.7,578.4,554.6,578.7,554.6,578.7z"/>
<path class="st73" d="M559.8,580.8c0,0,1.5-1.3,0-3.5c-1.5-2.3-4.3-0.5-4.3-0.5s-1,3.3,0,4S559.8,580.8,559.8,580.8z"/>
<path class="st73" d="M566,611.1L566,611.1c-2,0-3.6-1.6-3.6-3.5v-3.4c0-2,1.6-3.5,3.6-3.5l0,0c2,0,3.6,1.6,3.6,3.5v3.4
	C569.6,609.5,568,611.1,566,611.1z"/>
<path class="st68" d="M562.8,613.9c0,0-7.4-25.3-3.4-31.5c0.4-0.1,0.6-0.1,0.6-0.1l0.1-0.1l0.2,0.1c-4.2,6,3.3,31.6,3.3,31.6
	l-3.6,2.8l-0.3-0.3L562.8,613.9z"/>
<ellipse class="st73" cx="565.9" cy="596.4" rx="7.9" ry="7.8"/>
<path class="st68" d="M568.7,607.5v-3.4c0-0.2,0-0.5-0.1-0.7c3.9-2,5.4-6.7,3.4-10.5c-1.3-2.5-3.8-4.1-6.6-4.2h0.4
	c4.4,0,7.9,3.5,7.9,7.8c0,2.9-1.7,5.6-4.3,7c0.1,0.2,0.1,0.5,0.1,0.7v3.4c0,1.9-1.6,3.5-3.5,3.5c-0.2,0-0.3,0-0.5,0
	C567.4,610.8,568.7,609.3,568.7,607.5z"/>
<path class="st17" d="M557.9,635.4c0,0,15.3,1.7,15.8,0c1.8-5.5-3-11.5-0.6-14.4c2.5-3,0.6-7.1,0.6-7.1c0-4.3-3.5-7.8-7.9-7.8l0,0
	c-4.4,0-7.9,3.5-7.9,7.8V635.4z"/>
<path class="st68" d="M573.1,621c2.5-3,0.6-7.1,0.6-7.1c0-4.3-3.5-7.8-7.9-7.8c-0.2,0-0.3,0-0.5,0c4.2,0.3,7.4,3.7,7.4,7.8
	c0,0,1.9,4.1-0.6,7.1c-2.5,2.9,2.4,8.9,0.6,14.4c-0.2,0.5-1.7,0.7-3.8,0.8c2.6,0,4.7-0.1,4.9-0.8C575.6,629.9,570.7,623.9,573.1,621
	z"/>
<path class="st73" d="M570.5,634.9L570.5,634.9c5.6,7.8,8,19.6,6.4,30.9l0,0.3h-4.8c0,0,1.5-4.3,0-11.9c-0.9-4.5-3.5-8.6-7.2-11.4
	l-4.6,23.2h-4.4l4.4-31.3H570.5z"/>
<path class="st73" d="M597.3,589.9c0,0,1.8-0.8,1-3.4s-4-1.7-4-1.7s-1.9,2.8-1.2,3.9C593.9,589.7,597.3,589.9,597.3,589.9z"/>
<path class="st17" d="M570.2,615.2c0,0,23.7-7.6,27.1-25.3l-4.4-1.3c0,0-17.4,19.3-24.8,19.4C560.7,608.1,570.2,615.2,570.2,615.2z"
	/>
<path class="st68" d="M596.5,589.9l0.7,0.2c-3.4,17.7-27.1,25.3-27.1,25.3l-0.4-0.3C572.5,614.2,593.3,606.5,596.5,589.9z"/>
<g class="st14">
	<path class="st13" d="M563.9,643l-4.6,23.2h1l4.5-22.5C564.5,643.4,564.2,643.2,563.9,643z"/>
	<path class="st13" d="M570.5,634.9h-1c5.6,7.8,8,19.6,6.4,30.9l0,0.3h1l0-0.3C578.5,654.5,576,642.7,570.5,634.9z"/>
</g>
<path class="st68" d="M596.8,589.8c0,0,1.8-0.8,1-3.4c-0.2-0.7-0.7-1.4-1.5-1.6c0.9,0.2,1.7,0.9,2,1.8c0.8,2.6-1,3.4-1,3.4
	c-1-0.1-2-0.3-3-0.6C595.1,589.6,596,589.7,596.8,589.8z"/>
<path class="st69" d="M557.9,634.5l-9.6,20c5.6,0.3,11.2,0.9,16.7,2c10.6,2,15.7-3,15.7-3l-6.9-19H557.9z"/>
<path class="st17" d="M560.4,666.1c0,0,5.1,1,4.1,3h-9.1l0.5-3H560.4z"/>
<path class="st17" d="M576.6,666.1c0,0,5.1,1,4.1,3h-9.1l0.5-3H576.6z"/>
<path class="st74" d="M573.1,590c0,0-12.2,17-6.6,24l-21.8-0.5C544.7,613.5,550.8,575,573.1,590z"/>
<path class="st68" d="M573.1,590c-3.1-2.1-6-3.2-8.5-3.4c2.1,0.7,4.1,1.6,6,2.9c0,0-12.2,17-6.6,24l-19.2-0.4
	c-0.1,0.3-0.1,0.4-0.1,0.4l21.8,0.5C560.9,607,573.1,590,573.1,590z"/>
<path class="st68" d="M573.8,634.5h-1.5l6.9,19c0,0-3.3,3.2-10.1,3.5c7.8,0.3,11.6-3.5,11.6-3.5L573.8,634.5z"/>
<path class="st68" d="M560.4,666.1h-1c0,0,5.1,1,4.1,3h1C565.5,667.1,560.4,666.1,560.4,666.1z"/>
<path class="st68" d="M576.6,666.1h-1c0,0,5.1,1,4.1,3h1C581.7,667.1,576.6,666.1,576.6,666.1z"/>
</svg>
